<?xml version="1.0" encoding="UTF-8" standalone="no"?>
<svg
   height="128px"
   viewBox="0 0 128 128"
   width="128px"
   version="1.1"
   id="svg5"
   sodipodi:docname="video-x-generic.svg"
   inkscape:version="1.4.2 (ebf0e940d0, 2025-05-08)"
   xmlns:inkscape="http://www.inkscape.org/namespaces/inkscape"
   xmlns:sodipodi="http://sodipodi.sourceforge.net/DTD/sodipodi-0.dtd"
   xmlns="http://www.w3.org/2000/svg"
   xmlns:svg="http://www.w3.org/2000/svg">
  <defs
     id="defs5" />
  <sodipodi:namedview
     id="namedview5"
     pagecolor="#ffffff"
     bordercolor="#000000"
     borderopacity="0.25"
     inkscape:showpageshadow="2"
     inkscape:pageopacity="0.0"
     inkscape:pagecheckerboard="0"
     inkscape:deskcolor="#d1d1d1"
     inkscape:zoom="4.328125"
     inkscape:cx="63.884477"
     inkscape:cy="64"
     inkscape:window-width="1366"
     inkscape:window-height="768"
     inkscape:window-x="0"
     inkscape:window-y="0"
     inkscape:window-maximized="1"
     inkscape:current-layer="svg5" />
  <linearGradient
     id="a"
     gradientTransform="matrix(0.259459 0 0 0.25 237.09729 56)"
     gradientUnits="userSpaceOnUse"
     x1="-841.546875"
     x2="-493.708313"
     y1="204"
     y2="-70">
    <stop
       offset="0"
       stop-color="#e01b24"
       id="stop1"
       style="stop-color:#cc241d;stop-opacity:1;" />
    <stop
       offset="0.39416099"
       stop-color="#e66100"
       id="stop2"
       style="stop-color:#d65d01;stop-opacity:1;" />
    <stop
       offset="1"
       stop-color="#df97e0"
       id="stop3"
       style="stop-color:#dfab01;stop-opacity:1;" />
  </linearGradient>
  <path
     d="m 15.5 28 h 97 c 4.140625 0 7.5 3.359375 7.5 7.5 v 73 c 0 4.140625 -3.359375 7.5 -7.5 7.5 h -97 c -4.140625 0 -7.5 -3.359375 -7.5 -7.5 v -73 c 0 -4.140625 3.359375 -7.5 7.5 -7.5 z m 0 0"
     fill="#f6f5f4"
     id="path3"
     style="fill:#eae9c5" />
  <path
     d="m 19.777344 36 h 88.445312 c 2.085938 0 3.777344 1.691406 3.777344 3.777344 v 64.445312 c 0 2.085938 -1.691406 3.777344 -3.777344 3.777344 h -88.445312 c -2.085938 0 -3.777344 -1.691406 -3.777344 -3.777344 v -64.445312 c 0 -2.085938 1.691406 -3.777344 3.777344 -3.777344 z m 0 0"
     fill="url(#a)"
     id="path4" />
  <path
     d="m 56 60 v 22 h 2.199219 c 0.382812 0 0.757812 -0.097656 1.09375 -0.289062 l 15.394531 -8.796876 c 0.6875 -0.394531 1.109375 -1.125 1.109375 -1.914062 s -0.421875 -1.519531 -1.109375 -1.910156 l -15.394531 -8.800782 c -0.320313 -0.183593 -0.683594 -0.28125 -1.050781 -0.289062 c -0.011719 0 -0.027344 0 -0.042969 0 z m 0 0"
     fill="#ffffff"
     id="path5"
     style="fill:#eae9c5" />
</svg>
