<?xml version="1.0" encoding="UTF-8" standalone="no"?>
<svg
   height="128px"
   viewBox="0 0 128 128"
   width="128px"
   version="1.1"
   id="svg34"
   sodipodi:docname="user-trash.svg"
   inkscape:version="1.4.2 (ebf0e940d0, 2025-05-08)"
   xmlns:inkscape="http://www.inkscape.org/namespaces/inkscape"
   xmlns:sodipodi="http://sodipodi.sourceforge.net/DTD/sodipodi-0.dtd"
   xmlns:xlink="http://www.w3.org/1999/xlink"
   xmlns="http://www.w3.org/2000/svg"
   xmlns:svg="http://www.w3.org/2000/svg">
  <defs
     id="defs34">
    <linearGradient
       id="linearGradient35"
       gradientUnits="userSpaceOnUse">
      <stop
         offset="0"
         stop-color="#deddda"
         id="stop34"
         style="stop-color:#d5d5d5;stop-opacity:1;" />
      <stop
         offset="1"
         stop-color="#ffffff"
         id="stop35" />
    </linearGradient>
  </defs>
  <sodipodi:namedview
     id="namedview34"
     pagecolor="#ffffff"
     bordercolor="#000000"
     borderopacity="0.25"
     inkscape:showpageshadow="2"
     inkscape:pageopacity="0.0"
     inkscape:pagecheckerboard="0"
     inkscape:deskcolor="#d1d1d1"
     inkscape:zoom="4.328125"
     inkscape:cx="63.884477"
     inkscape:cy="64"
     inkscape:window-width="1366"
     inkscape:window-height="768"
     inkscape:window-x="0"
     inkscape:window-y="0"
     inkscape:window-maximized="1"
     inkscape:current-layer="svg34" />
  <linearGradient
     id="a"
     gradientUnits="userSpaceOnUse"
     x1="17.999982"
     x2="109.999715"
     y1="70.999989"
     y2="70.999989">
    <stop
       offset="0"
       stop-color="#26a269"
       id="stop1"
       style="stop-color:#79740e;stop-opacity:1;" />
    <stop
       offset="0.0394022"
       stop-color="#42d390"
       id="stop2"
       style="stop-color:#b8bb26;stop-opacity:1;" />
    <stop
       offset="0.0869565"
       stop-color="#2ec27e"
       id="stop3"
       style="stop-color:#98971a;stop-opacity:1;" />
    <stop
       offset="0.95652401"
       stop-color="#2ec27e"
       id="stop4"
       style="stop-color:#b8bb26;stop-opacity:1;" />
    <stop
       offset="1"
       stop-color="#26a168"
       id="stop5"
       style="stop-color:#79740e;stop-opacity:1;" />
  </linearGradient>
  <clipPath
     id="b">
    <path
       d="m 18 32 h 92 v 82 h -92 z m 0 0"
       id="path5" />
  </clipPath>
  <clipPath
     id="c">
    <path
       d="m 26.65625 32 h 74.6875 c 4.78125 0 8.65625 3.875 8.65625 8.65625 v 64.6875 c 0 4.78125 -3.875 8.65625 -8.65625 8.65625 h -74.6875 c -4.78125 0 -8.65625 -3.875 -8.65625 -8.65625 v -64.6875 c 0 -4.78125 3.875 -8.65625 8.65625 -8.65625 z m 0 0"
       id="path6" />
  </clipPath>
  <filter
     id="d"
     height="1"
     width="1"
     x="0"
     y="0">
    <feColorMatrix
       in="SourceGraphic"
       type="matrix"
       values="0 0 0 0 1 0 0 0 0 1 0 0 0 0 1 0 0 0 1 0"
       id="feColorMatrix6" />
  </filter>
  <mask
     id="e">
    <g
       filter="url(#d)"
       id="g6">
      <rect
         fill-opacity="0.2"
         height="128"
         width="128"
         id="rect6" />
    </g>
  </mask>
  <clipPath
     id="f">
    <rect
       height="152"
       width="192"
       id="rect7" />
  </clipPath>
  <linearGradient
     id="g"
     gradientTransform="matrix(1.043478 0 0 0.909091 -6.95654 -159.27274)"
     gradientUnits="userSpaceOnUse"
     x1="22"
     x2="114"
     y1="206"
     y2="206">
    <stop
       offset="0"
       stop-color="#deddda"
       id="stop7"
       style="stop-color:#d5c4a1;stop-opacity:1;" />
    <stop
       offset="0.0562887"
       stop-color="#eeedec"
       id="stop8"
       style="stop-color:#eae9c5;stop-opacity:1;" />
    <stop
       offset="0.117776"
       stop-color="#deddda"
       id="stop9"
       style="stop-color:#eae9c5;stop-opacity:1;" />
    <stop
       offset="0.89213502"
       stop-color="#deddda"
       id="stop10"
       style="stop-color:#eae9c5;stop-opacity:1;" />
    <stop
       offset="0.94593698"
       stop-color="#efeeed"
       id="stop11"
       style="stop-color:#eae9c5;stop-opacity:1;" />
    <stop
       offset="1"
       stop-color="#c3c2bc"
       id="stop12"
       style="stop-color:#d5c4a1;stop-opacity:1;" />
  </linearGradient>
  <clipPath
     id="h">
    <path
       d="m 20 12 h 6 v 24 h -6 z m 0 0"
       id="path12" />
  </clipPath>
  <clipPath
     id="i">
    <path
       d="m 24 12 h 80 c 2.210938 0 4 1.789062 4 4 v 16 c 0 2.210938 -1.789062 4 -4 4 h -80 c -2.210938 0 -4 -1.789062 -4 -4 v -16 c 0 -2.210938 1.789062 -4 4 -4 z m 0 0"
       id="path13" />
  </clipPath>
  <linearGradient
     id="j"
     gradientTransform="matrix(1.043478 0 0 0.873303 -46.695677 -45.017061)"
     gradientUnits="userSpaceOnUse"
     x1="63.916664"
     x2="75.416664"
     y1="79.029953"
     y2="79.029953">
    <stop
       offset="0"
       stop-color="#77767b"
       id="stop13"
       style="stop-color:#7c6f64;stop-opacity:1;" />
    <stop
       offset="1"
       stop-color="#77767b"
       stop-opacity="0"
       id="stop14"
       style="stop-color:#7c6f64;stop-opacity:0;" />
  </linearGradient>
  <clipPath
     id="k">
    <path
       d="m 20 12 h 88 v 24 h -88 z m 0 0"
       id="path14" />
  </clipPath>
  <clipPath
     id="l">
    <path
       d="m 24 12 h 80 c 2.210938 0 4 1.789062 4 4 v 16 c 0 2.210938 -1.789062 4 -4 4 h -80 c -2.210938 0 -4 -1.789062 -4 -4 v -16 c 0 -2.210938 1.789062 -4 4 -4 z m 0 0"
       id="path15" />
  </clipPath>
  <mask
     id="m">
    <g
       filter="url(#d)"
       id="g15">
      <rect
         fill-opacity="0.317"
         height="128"
         width="128"
         id="rect15" />
    </g>
  </mask>
  <linearGradient
     id="n"
     gradientTransform="matrix(-1.043478 0 0 0.873303 182.695658 -29.017061)"
     gradientUnits="userSpaceOnUse"
     x1="63.916672"
     x2="75.416672"
     y1="76.739799"
     y2="76.739799">
    <stop
       offset="0"
       stop-color="#ffffff"
       id="stop15"
       style="stop-color:#ebdbb2;stop-opacity:1;" />
    <stop
       offset="1"
       stop-color="#e8e7e8"
       stop-opacity="0"
       id="stop16"
       style="stop-color:#ebdbb2;stop-opacity:0;" />
  </linearGradient>
  <clipPath
     id="o">
    <rect
       height="152"
       width="192"
       id="rect16" />
  </clipPath>
  <linearGradient
     id="p"
     gradientUnits="userSpaceOnUse">
    <stop
       offset="0"
       stop-color="#deddda"
       id="stop17" />
    <stop
       offset="1"
       stop-color="#ffffff"
       id="stop18" />
  </linearGradient>
  <linearGradient
     id="q"
     x1="80.428823"
     x2="80.499478"
     xlink:href="#p"
     y1="90.759449"
     y2="83.384449" />
  <linearGradient
     id="r"
     x1="45.608907"
     x2="53.124498"
     xlink:href="#p"
     y1="89.499714"
     y2="93.999714" />
  <linearGradient
     id="s"
     x1="64.374326"
     x2="57.932443"
     xlink:href="#linearGradient35"
     y1="60.000004"
     y2="62.777791" />
  <path
     d="m 26 34 h 76 c 4.417969 0 8 3.582031 8 8 v 66 c 0 4.417969 -3.582031 8 -8 8 h -76 c -4.417969 0 -8 -3.582031 -8 -8 v -66 c 0 -4.417969 3.582031 -8 8 -8 z m 0 0"
     fill="#26a269"
     id="path18"
     style="fill:#79740e" />
  <path
     d="m 26 30 h 76 c 4.417969 0 8 3.582031 8 8 v 68 c 0 4.417969 -3.582031 8 -8 8 h -76 c -4.417969 0 -8 -3.582031 -8 -8 v -68 c 0 -4.417969 3.582031 -8 8 -8 z m 0 0"
     fill="url(#a)"
     id="path19" />
  <g
     clip-path="url(#b)"
     id="g22">
    <g
       clip-path="url(#c)"
       id="g21">
      <g
         clip-path="url(#f)"
         mask="url(#e)"
         transform="matrix(1 0 0 1 -8 -16)"
         id="g20">
        <path
           d="m 31.882812 26 h 80.234376 c 4.355468 0 7.882812 3.527344 7.882812 7.882812 v 24.234376 c 0 4.355468 -3.527344 7.882812 -7.882812 7.882812 h -80.234376 c -4.355468 0 -7.882812 -3.527344 -7.882812 -7.882812 v -24.234376 c 0 -4.355468 3.527344 -7.882812 7.882812 -7.882812 z m 0 0"
           id="path20" />
      </g>
    </g>
  </g>
  <path
     d="m 24 8 h 80 c 4.417969 0 8 3.582031 8 8 v 24 c 0 4.417969 -3.582031 8 -8 8 h -80 c -4.417969 0 -8 -3.582031 -8 -8 v -24 c 0 -4.417969 3.582031 -8 8 -8 z m 0 0"
     fill="url(#g)"
     id="path22" />
  <path
     d="m 24 8 h 80 c 4.417969 0 8 3.582031 8 8 v 16 c 0 4.417969 -3.582031 8 -8 8 h -80 c -4.417969 0 -8 -3.582031 -8 -8 v -16 c 0 -4.417969 3.582031 -8 8 -8 z m 0 0"
     fill="#f6f5f4"
     id="path23"
     style="fill:#d5c4a1;fill-opacity:1" />
  <path
     d="m 24 12 h 80 c 2.210938 0 4 1.789062 4 4 v 16 c 0 2.210938 -1.789062 4 -4 4 h -80 c -2.210938 0 -4 -1.789062 -4 -4 v -16 c 0 -2.210938 1.789062 -4 4 -4 z m 0 0"
     fill="#9a9996"
     id="path24"
     style="fill:#3c3836" />
  <g
     clip-path="url(#h)"
     id="g26">
    <g
       clip-path="url(#i)"
       id="g25">
      <path
         d="m 26 12 h -6 v 24 h 6 z m 0 0"
         fill="url(#j)"
         id="path25" />
    </g>
  </g>
  <g
     clip-path="url(#k)"
     id="g29">
    <g
       clip-path="url(#l)"
       id="g28">
      <g
         clip-path="url(#o)"
         mask="url(#m)"
         transform="matrix(1 0 0 1 -8 -16)"
         id="g27">
        <path
           d="m 110 28 v 24 h 6 v -24 z m 0 0"
           fill="url(#n)"
           id="path26" />
      </g>
    </g>
  </g>
  <g
     fill-rule="evenodd"
     id="g34">
    <path
       d="m 73.804688 81.410156 l 10.390624 -6 l 3 5.199219 c 1.070313 1.855469 1.070313 4.140625 0 6 l -3 5.195313 l -2.195312 3.800781 l -6.929688 -11.996094 z m 0 0"
       fill="url(#q)"
       id="path29"
       style="fill:#d5c4a1" />
    <path
       d="m 58 88 v 12 h -6 c -2.144531 0 -4.125 -1.144531 -5.195312 -3 l -3 -5.195312 l -2.195313 -3.804688 z m 0 0"
       fill="url(#r)"
       id="path30"
       style="fill:#d5c4a1" />
    <path
       d="m 60.195312 72.195312 l -10.390624 -6 l 3 -5.195312 c 1.070312 -1.855469 3.050781 -3 5.195312 -3 h 10.390625 l -6.925781 12 z m 0 0"
       fill="url(#s)"
       id="path31"
       style="fill:#d5c4a1" />
    <path
       d="M 64,58 59.609375,58.0039 66.535156,70 l 1.269532,2.195312 -3.464844,2 L 77,76.125 l 4.660156,-11.929688 -3.464844,2 -3,-5.195312 C 74.125,59.144531 72.144531,58 70,58 Z m 0,0"
       fill="#ffffff"
       id="path32"
       style="display:inline;fill:#eae9c5" />
    <path
       d="m 70,84 -8,10 8,10 v -4 h 6 c 2.144531,0 4.125,-1.144531 5.195312,-3 l 3,-5.195312 L 86.390625,88 H 70 Z m 0,0"
       fill="#ffffff"
       id="path33"
       style="display:inline;fill:#eae9c5" />
    <path
       d="m 53,71.484375 -12.660156,1.925781 3.464844,2 -3,5.195313 c -1.070313,1.859375 -1.070313,4.144531 0,6 L 43.800781,91.804688 46,95.605469 l 6.925781,-12 1.269531,-2.195313 3.464844,2 z m 0,0"
       fill="#ffffff"
       id="path34"
       style="display:inline;fill:#eae9c5" />
  </g>
</svg>
