<?xml version="1.0" encoding="UTF-8" standalone="no"?>
<svg
   height="128"
   width="128"
   version="1.1"
   id="svg102"
   sodipodi:docname="application-x-firmware.svg"
   inkscape:version="1.4.2 (ebf0e940d0, 2025-05-08)"
   xmlns:inkscape="http://www.inkscape.org/namespaces/inkscape"
   xmlns:sodipodi="http://sodipodi.sourceforge.net/DTD/sodipodi-0.dtd"
   xmlns:xlink="http://www.w3.org/1999/xlink"
   xmlns="http://www.w3.org/2000/svg"
   xmlns:svg="http://www.w3.org/2000/svg">
  <defs
     id="defs102" />
  <sodipodi:namedview
     id="namedview102"
     pagecolor="#ffffff"
     bordercolor="#000000"
     borderopacity="0.25"
     inkscape:showpageshadow="2"
     inkscape:pageopacity="0.0"
     inkscape:pagecheckerboard="0"
     inkscape:deskcolor="#d1d1d1"
     inkscape:zoom="5.5324108"
     inkscape:cx="48.622565"
     inkscape:cy="80.615851"
     inkscape:window-width="1366"
     inkscape:window-height="768"
     inkscape:window-x="0"
     inkscape:window-y="0"
     inkscape:window-maximized="1"
     inkscape:current-layer="svg102" />
  <linearGradient
     id="a"
     gradientUnits="userSpaceOnUse">
    <stop
       offset="0"
       stop-color="#f9f06b"
       id="stop1" />
    <stop
       offset=".512"
       stop-color="#fcf7ac"
       id="stop2" />
    <stop
       offset="1"
       stop-color="#f9f06b"
       id="stop3" />
  </linearGradient>
  <linearGradient
     id="c"
     gradientTransform="matrix(.17746 0 0 .17717 20.391 70.756)"
     x1="94.021"
     x2="94.021"
     xlink:href="#a"
     y1="194.219"
     y2="234.219" />
  <linearGradient
     id="b"
     gradientUnits="userSpaceOnUse">
    <stop
       offset="0"
       stop-color="#d5d1cc"
       id="stop4" />
    <stop
       offset=".183"
       stop-color="#f6f5f4"
       id="stop5" />
    <stop
       offset=".395"
       stop-color="#fff"
       id="stop6" />
    <stop
       offset=".784"
       stop-color="#d7d3ce"
       id="stop7" />
    <stop
       offset="1"
       stop-color="#c8c2bb"
       id="stop8" />
  </linearGradient>
  <linearGradient
     id="d"
     x1="60.5"
     x2="60.5"
     xlink:href="#b"
     y1="66.569"
     y2="70.118" />
  <linearGradient
     id="e"
     x1="23.357"
     x2="24.498"
     xlink:href="#a"
     y1="87.509"
     y2="91.768" />
  <linearGradient
     id="f"
     gradientTransform="matrix(.70982 0 0 .2366 11.29 25.281)"
     x1="17"
     x2="18.608"
     xlink:href="#a"
     y1="253"
     y2="259" />
  <linearGradient
     id="g"
     gradientTransform="matrix(.70982 0 0 .2366 25.719 16.763)"
     x1="17"
     x2="18.608"
     xlink:href="#a"
     y1="253"
     y2="259" />
  <linearGradient
     id="h"
     x1="37.786"
     x2="38.927"
     xlink:href="#a"
     y1="70.473"
     y2="74.732" />
  <linearGradient
     id="i"
     gradientTransform="matrix(.70982 0 0 .2366 25.719 8.246)"
     x1="17"
     x2="18.608"
     xlink:href="#a"
     y1="253"
     y2="259" />
  <linearGradient
     id="j"
     x1="67.946"
     x2="67.946"
     xlink:href="#b"
     y1="61.951"
     y2="65.5" />
  <linearGradient
     id="k"
     gradientTransform="matrix(.70982 0 0 -.70982 41.683 233.018)"
     x1="37"
     x2="37"
     xlink:href="#b"
     y1="249"
     y2="254" />
  <linearGradient
     id="l"
     x1="46.304"
     x2="46.304"
     xlink:href="#b"
     y1="86.089"
     y2="89.638" />
  <linearGradient
     id="m"
     x1="23.357"
     x2="24.498"
     xlink:href="#a"
     y1="77.259"
     y2="81.518" />
  <linearGradient
     id="n"
     gradientTransform="matrix(.70982 0 0 .2366 11.29 15.031)"
     x1="17"
     x2="18.608"
     xlink:href="#a"
     y1="253"
     y2="259" />
  <linearGradient
     id="o"
     x1="23.357"
     x2="24.498"
     xlink:href="#a"
     y1="58.009"
     y2="62.268" />
  <linearGradient
     id="p"
     gradientTransform="matrix(.70982 0 0 .2366 11.29 -4.219)"
     x1="17"
     x2="18.608"
     xlink:href="#a"
     y1="253"
     y2="259" />
  <linearGradient
     id="q"
     gradientTransform="matrix(.17746 0 0 .17717 6.19 70.756)"
     x1="94.021"
     x2="94.021"
     xlink:href="#a"
     y1="194.219"
     y2="234.219" />
  <path
     d="M16 27.93h96c4.434 0 8 3.57 8 8V86l-30 30H16a7.98 7.98 0 0 1-8-8V35.93c0-4.43 3.566-8 8-8zm0 0"
     fill="#2ec27e"
     id="path8"
     style="fill:#79740e" />
  <path
     d="M120 86.125H98a7.98 7.98 0 0 0-8 8V116zm0 0"
     fill="#deddda"
     id="path9"
     style="fill:#98971a" />
  <path
     d="M34.945 108.71v-8.425l4.262-4.258h3.547l3.55-3.55V83.87M42.043 107.383v-5.676l7.102-7.102v-7.902"
     fill="none"
     stroke="#f9f06b"
     stroke-width="1.42"
     id="path10"
     style="stroke:#dfab01;stroke-opacity:1" />
  <path
     d="M34.945 103.04c-1.18 0-2.129.948-2.129 2.124v9.922c0 .273.055.527.145.766h3.973c.09-.239.14-.493.14-.766v-9.922c0-1.176-.949-2.125-2.129-2.125zm7.098 0c-1.18 0-2.129.948-2.129 2.124v9.922c0 .273.055.527.145.766h3.972c.09-.239.145-.493.145-.766v-9.922a2.126 2.126 0 0 0-2.133-2.125zm7.102 0c-1.18 0-2.133.948-2.133 2.124v9.922c0 .273.054.527.144.766h3.973c.09-.239.144-.493.144-.766v-9.922c0-1.176-.949-2.125-2.128-2.125zm7.097 0c-1.18 0-2.129.948-2.129 2.124v9.922c0 .273.051.527.14.766h3.974c.09-.239.144-.493.144-.766v-9.922c0-1.176-.95-2.125-2.129-2.125zm7.098 0c-1.18 0-2.13.948-2.13 2.124v9.922c0 .273.052.527.142.766h3.972a2.07 2.07 0 0 0 .145-.766v-9.922c0-1.176-.95-2.125-2.13-2.125zm7.097 0c-1.18 0-2.128.948-2.128 2.124v9.922c0 .273.05.527.144.766h3.969a2.07 2.07 0 0 0 .144-.766v-9.922c0-1.176-.949-2.125-2.129-2.125zm7.098 0c-1.18 0-2.129.948-2.129 2.124v9.922c0 .273.051.527.145.766h3.972c.09-.239.141-.493.141-.766v-9.922c0-1.176-.95-2.125-2.129-2.125zm7.098 0c-1.18 0-2.13.948-2.13 2.124v9.922c0 .273.056.527.145.766h3.973c.09-.239.14-.493.14-.766v-9.922c0-1.176-.948-2.125-2.128-2.125zm0 0"
     fill="url(#c)"
     id="path11" />
  <path
     d="M63.34 105.254v-3.547l-5.68-5.68v-9.226M56.242 105.254v-4.969l-1.422-1.418V86.801M49.145 105.254v-6.387l2.835-2.84v-9.226"
     fill="none"
     stroke="#f9f06b"
     stroke-width="1.42"
     id="path12"
     style="stroke:#dfab01;stroke-opacity:1" />
  <path
     d="M44.883 70.473h17.035a2.13 2.13 0 0 1 2.133 2.129v12.066a2.13 2.13 0 0 1-2.133 2.133H44.883a2.13 2.13 0 0 1-2.13-2.133V72.602c0-1.176.954-2.13 2.13-2.13zm0 0"
     fill="#3d3846"
     id="path13"
     style="fill:#1d2021" />
  <path
     d="M50.563 59.117h7.808l2.129 2.13v8.515"
     fill="none"
     stroke="#f9f06b"
     stroke-width="1.42"
     id="path14"
     style="stroke:#dfab01;stroke-opacity:1" />
  <path
     d="M57.66 69.762v-7.805l-2.84-2.84M54.82 69.762v-7.098l-3.547-3.547M51.98 69.762v-4.969l-1.417-1.418h-7.81M49.145 69.762v-5.676M46.305 69.762v-5.676"
     fill="none"
     stroke="#f9f06b"
     stroke-width="1.42"
     id="path15"
     style="stroke:#dfab01;stroke-opacity:1" />
  <path
     d="M46.305 66.21a.709.709 0 0 0-.711.712v2.84h1.418v-2.84a.708.708 0 0 0-.707-.711zm2.84 0a.709.709 0 0 0-.711.712v2.84h1.418v-2.84a.708.708 0 0 0-.707-.711zm2.835 0a.708.708 0 0 0-.707.712v2.84h1.418v-2.84a.709.709 0 0 0-.71-.711zm2.84 0a.708.708 0 0 0-.707.712v2.84h1.418v-2.84a.709.709 0 0 0-.71-.711zm2.84 0a.709.709 0 0 0-.71.712v2.84h1.421v-2.84a.709.709 0 0 0-.71-.711zm2.84 0a.709.709 0 0 0-.71.712v2.84h1.42v-2.84a.709.709 0 0 0-.71-.711zm0 0"
     fill="url(#d)"
     id="path16" />
  <path
     d="M44.883 68.344h17.035a2.13 2.13 0 0 1 2.133 2.129V83.25a2.13 2.13 0 0 1-2.133 2.129H44.883a2.129 2.129 0 0 1-2.13-2.129V70.473c0-1.176.954-2.13 2.13-2.13zm0 0"
     fill="#5e5c64"
     id="path17"
     style="fill:#000000;fill-opacity:1" />
  <path
     d="M60.5 86.8v4.97l9.938 9.937v2.836"
     fill="none"
     stroke="#f9f06b"
     stroke-width="1.42"
     id="path18"
     style="stroke:#dfab01;stroke-opacity:1" />
  <path
     d="M45.594 72.602h10.648v1.421H45.594zM45.594 75.441h5.68v2.84h-5.68zM51.98 75.441h7.81v2.84h-7.81zm0 0"
     fill="#77767b"
     id="path19"
     style="fill:#dfab01" />
  <g
     fill="none"
     stroke="#f9f06b"
     stroke-width="1.42"
     id="g21"
     style="stroke:#dfab01;stroke-opacity:1">
    <path
       d="M74.695 87.508a1.419 1.419 0 1 1-2.84 0c0-.781.637-1.418 1.422-1.418s1.418.637 1.418 1.418zM73.625 69.758c0 .785-.637 1.422-1.418 1.422a1.422 1.422 0 0 1-1.422-1.422 1.42 1.42 0 0 1 2.84 0zM82.145 69.758a1.419 1.419 0 1 1-2.84 0c0-.781.633-1.418 1.418-1.418s1.422.637 1.422 1.418zM82.145 64.082c0 .781-.637 1.418-1.422 1.418s-1.418-.637-1.418-1.418a1.419 1.419 0 1 1 2.84 0zm0 0"
       id="path20"
       style="stroke:#dfab01;stroke-opacity:1" />
    <path
       d="M73.277 88.93v1.418l4.258 4.257v10.649M72.207 71.18v1.418l1.418 1.422h5.68l1.418-1.422V71.18M50.563 59.117a1.42 1.42 0 1 1-2.841-.005 1.42 1.42 0 0 1 2.84.005zM42.754 63.375c0 .785-.637 1.418-1.418 1.418a1.419 1.419 0 1 1 1.418-1.418zm0 0"
       id="path21"
       style="stroke:#dfab01;stroke-opacity:1" />
  </g>
  <path
     d="M19.809 88.219h5.68v4.258h-5.68zm0 0"
     fill="url(#e)"
     id="path22" />
  <path
     d="M19.809 85.379h5.68V86.8h-5.68zm0 0"
     fill="url(#f)"
     id="path23" />
  <path
     d="M34.238 76.863h5.676v1.418h-5.676zm0 0"
     fill="url(#g)"
     id="path24" />
  <path
     d="M34.238 71.184h5.676v4.257h-5.676zm0 0"
     fill="url(#h)"
     id="path25" />
  <path
     d="M34.238 68.344h5.676v1.418h-5.676zm0 0"
     fill="url(#i)"
     id="path26" />
  <path
     d="M80.723 52.719a1.421 1.421 0 1 1 0 2.84 1.418 1.418 0 0 1-1.418-1.418c0-.786.632-1.422 1.418-1.422zM80.723 44.203a1.419 1.419 0 1 1 0 2.84c-.785 0-1.418-.637-1.418-1.422s.632-1.418 1.418-1.418zM75.043 44.203a1.419 1.419 0 1 1 0 2.84c-.781 0-1.418-.637-1.418-1.422s.637-1.418 1.418-1.418zm0 0"
     fill="none"
     stroke="#f9f06b"
     stroke-width="1.41975"
     id="path27"
     style="stroke:#dfab01;stroke-opacity:1" />
  <path
     d="M82.145 54.14h1.418l1.417-1.421v-5.676l-1.418-1.422h-1.417"
     fill="none"
     stroke="#f9f06b"
     stroke-width="1.42"
     id="path28"
     style="stroke:#dfab01;stroke-opacity:1" />
  <path
     d="M67.238 55.563h7.098a1.42 1.42 0 0 1 1.418 1.417v4.97c0 .784-.637 1.421-1.418 1.421h-7.098a1.422 1.422 0 0 1-1.422-1.422V56.98c0-.78.637-1.417 1.422-1.417zm0 0"
     fill="#3d3846"
     id="path29"
     style="fill:#1d2021" />
  <path
     d="M67.238 62.66v2.13a.709.709 0 1 0 1.418 0v-2.13zm2.836 0v2.13c0 .394.317.71.711.71.395 0 .711-.316.711-.71v-2.13zm2.84 0v2.13c0 .394.316.71.711.71s.71-.316.71-.71v-2.13zm0 0"
     fill="url(#j)"
     id="path30" />
  <path
     d="M67.238 55.563v-2.13a.709.709 0 1 1 1.418 0v2.13zm2.836 0v-2.13c0-.394.317-.71.711-.71.395 0 .711.316.711.71v2.13zm2.84 0v-2.13c0-.394.316-.71.711-.71s.71.316.71.71v2.13zm0 0"
     fill="url(#k)"
     id="path31" />
  <path
     d="M67.238 53.434h7.098a1.42 1.42 0 0 1 1.418 1.418v5.68c0 .784-.637 1.417-1.418 1.417h-7.098a1.419 1.419 0 0 1-1.422-1.418v-5.68c0-.78.637-1.417 1.422-1.417zm0 0"
     fill="#5e5c64"
     id="path32"
     style="fill:#000000;fill-opacity:1" />
  <path
     d="M67.238 54.852h5.676v1.421h-5.676zM67.238 57.691h2.836v1.422h-2.836zm0 0"
     fill="#77767b"
     id="path33"
     style="fill:#dfab01" />
  <path
     d="M87.113 76.148h4.258v4.258h-4.258zm0 0"
     fill="#986a44"
     id="path34"
     style="fill:#654735" />
  <path
     d="M87.113 76.148h4.258v2.84h-4.258zm0 0"
     fill="#b5835a"
     id="path35"
     style="fill:#4f3829" />
  <path
     d="M87.113 76.148h1.418v2.84h-1.418zm0 0"
     fill="#f6f5f4"
     id="path36"
     style="fill:#eae9c5" />
  <path
     d="M87.113 80.406h1.418v-1.418h-1.418zm0 0"
     fill="#c0bfbc"
     id="path37"
     style="fill:#bdae93" />
  <path
     d="M91.371 76.148h1.418v2.84h-1.418zm0 0"
     fill="#f6f5f4"
     id="path38"
     style="fill:#eae9c5" />
  <path
     d="M91.371 80.406h1.418v-1.418h-1.418zm0 0"
     fill="#c0bfbc"
     id="path39"
     style="fill:#bdae93" />
  <path
     d="M87.113 71.887h4.258v4.261h-4.258zm0 0"
     fill="#986a44"
     id="path40"
     style="fill:#654735" />
  <path
     d="M87.113 71.887h4.258v2.84h-4.258zm0 0"
     fill="#b5835a"
     id="path41"
     style="fill:#4f3829" />
  <path
     d="M87.113 71.887h1.418v2.84h-1.418zm0 0"
     fill="#f6f5f4"
     id="path42"
     style="fill:#eae9c5" />
  <path
     d="M87.113 76.148h1.418v-1.421h-1.418zm0 0"
     fill="#c0bfbc"
     id="path43"
     style="fill:#bdae93" />
  <path
     d="M91.371 71.887h1.418v2.84h-1.418zm0 0"
     fill="#f6f5f4"
     id="path44"
     style="fill:#eae9c5" />
  <path
     d="M91.371 76.148h1.418v-1.421h-1.418zm0 0"
     fill="#c0bfbc"
     id="path45"
     style="fill:#bdae93" />
  <path
     d="M87.113 67.629h4.258v4.258h-4.258zm0 0"
     fill="#986a44"
     id="path46"
     style="fill:#654735" />
  <path
     d="M87.113 67.629h4.258v2.84h-4.258zm0 0"
     fill="#b5835a"
     id="path47"
     style="fill:#4f3829" />
  <path
     d="M87.113 67.629h1.418v2.84h-1.418zm0 0"
     fill="#f6f5f4"
     id="path48"
     style="fill:#eae9c5" />
  <path
     d="M87.113 71.887h1.418v-1.418h-1.418zm0 0"
     fill="#c0bfbc"
     id="path49"
     style="fill:#bdae93" />
  <path
     d="M91.371 67.629h1.418v2.84h-1.418zm0 0"
     fill="#f6f5f4"
     id="path50"
     style="fill:#eae9c5" />
  <path
     d="M91.371 71.887h1.418v-1.418h-1.418zm0 0"
     fill="#c0bfbc"
     id="path51"
     style="fill:#bdae93" />
  <path
     d="M21.809 43.156v-5.68h2.84v5.68zm0 0"
     fill="#986a44"
     id="path52"
     style="fill:#4f3829" />
  <path
     d="M21.809 43.156v-5.68h1.418v5.68zm0 0"
     fill="#b5835a"
     id="path53"
     style="fill:#654735" />
  <path
     d="M21.809 43.156v-1.418h2.84v1.418zM21.809 38.898v-1.421h2.84v1.421zm0 0"
     fill="#f6f5f4"
     id="path54"
     style="fill:#eae9c5" />
  <path
     d="M30.324 43.156v-5.68h2.84v5.68zm0 0"
     fill="#986a44"
     id="path55"
     style="fill:#4f3829" />
  <path
     d="M30.324 43.156v-5.68h1.422v5.68zm0 0"
     fill="#b5835a"
     id="path56"
     style="fill:#654735" />
  <path
     d="M30.324 43.156v-1.418h2.84v1.418zM30.324 38.898v-1.421h2.84v1.421zm0 0"
     fill="#f6f5f4"
     id="path57"
     style="fill:#eae9c5" />
  <path
     d="M26.066 43.156v-5.68h2.84v5.68zm0 0"
     fill="#986a44"
     id="path58"
     style="fill:#4f3829" />
  <path
     d="M26.066 43.156v-5.68h1.422v5.68zm0 0"
     fill="#b5835a"
     id="path59"
     style="fill:#654735" />
  <path
     d="M26.066 43.156v-1.418h2.84v1.418zM26.066 38.898v-1.421h2.84v1.421zm0 0"
     fill="#f6f5f4"
     id="path60"
     style="fill:#eae9c5" />
  <path
     d="M45.594 86.09v2.84c0 .39.316.707.71.707.391 0 .708-.317.708-.707v-2.84zm2.84 0v2.84c0 .39.316.707.71.707.391 0 .708-.317.708-.707v-2.84zm2.84 0v2.84a.708.708 0 0 0 1.418 0v-2.84zm2.84 0v2.84a.708.708 0 0 0 1.418 0v-2.84zm2.835 0v2.84c0 .39.317.707.711.707.395 0 .711-.317.711-.707v-2.84zm2.84 0v2.84c0 .39.316.707.711.707s.71-.317.71-.707v-2.84zm0 0"
     fill="url(#l)"
     id="path61" />
  <path
     d="M105.363 76.148h4.258v4.258h-4.258zm0 0"
     fill="#986a44"
     id="path62"
     style="fill:#654735" />
  <path
     d="M105.363 76.148h4.258v2.84h-4.258zm0 0"
     fill="#b5835a"
     id="path63"
     style="fill:#4f3829" />
  <path
     d="M105.363 76.148h1.418v2.84h-1.418zm0 0"
     fill="#f6f5f4"
     id="path64"
     style="fill:#eae9c5" />
  <path
     d="M105.363 80.406h1.418v-1.418h-1.418zm0 0"
     fill="#c0bfbc"
     id="path65"
     style="fill:#bdae93" />
  <path
     d="M109.621 76.148h1.418v2.84h-1.418zm0 0"
     fill="#f6f5f4"
     id="path66"
     style="fill:#eae9c5" />
  <path
     d="M109.621 80.406h1.418v-1.418h-1.418zm0 0"
     fill="#c0bfbc"
     id="path67"
     style="fill:#bdae93" />
  <path
     d="M105.363 71.887h4.258v4.261h-4.258zm0 0"
     fill="#986a44"
     id="path68"
     style="fill:#654735" />
  <path
     d="M105.363 71.887h4.258v2.84h-4.258zm0 0"
     fill="#b5835a"
     id="path69"
     style="fill:#4f3829" />
  <path
     d="M105.363 71.887h1.418v2.84h-1.418zm0 0"
     fill="#f6f5f4"
     id="path70"
     style="fill:#eae9c5" />
  <path
     d="M105.363 76.148h1.418v-1.421h-1.418zm0 0"
     fill="#c0bfbc"
     id="path71"
     style="fill:#bdae93" />
  <path
     d="M109.621 71.887h1.418v2.84h-1.418zm0 0"
     fill="#f6f5f4"
     id="path72"
     style="fill:#eae9c5" />
  <path
     d="M109.621 76.148h1.418v-1.421h-1.418zm0 0"
     fill="#c0bfbc"
     id="path73"
     style="fill:#bdae93" />
  <path
     d="M105.363 67.629h4.258v4.258h-4.258zm0 0"
     fill="#986a44"
     id="path74"
     style="fill:#654735" />
  <path
     d="M105.363 67.629h4.258v2.84h-4.258zm0 0"
     fill="#b5835a"
     id="path75"
     style="fill:#4f3829" />
  <path
     d="M105.363 67.629h1.418v2.84h-1.418zm0 0"
     fill="#f6f5f4"
     id="path76"
     style="fill:#eae9c5" />
  <path
     d="M105.363 71.887h1.418v-1.418h-1.418zm0 0"
     fill="#c0bfbc"
     id="path77"
     style="fill:#bdae93" />
  <path
     d="M109.621 67.629h1.418v2.84h-1.418zm0 0"
     fill="#f6f5f4"
     id="path78"
     style="fill:#eae9c5" />
  <path
     d="M109.621 71.887h1.418v-1.418h-1.418zm0 0"
     fill="#c0bfbc"
     id="path79"
     style="fill:#bdae93" />
  <path
     d="M95.863 76.148h4.258v4.258h-4.258zm0 0"
     fill="#986a44"
     id="path80"
     style="fill:#654735" />
  <path
     d="M95.863 76.148h4.258v2.84h-4.258zm0 0"
     fill="#b5835a"
     id="path81"
     style="fill:#4f3829" />
  <path
     d="M95.863 76.148h1.418v2.84h-1.418zm0 0"
     fill="#f6f5f4"
     id="path82"
     style="fill:#eae9c5" />
  <path
     d="M95.863 80.406h1.418v-1.418h-1.418zm0 0"
     fill="#c0bfbc"
     id="path83"
     style="fill:#bdae93" />
  <path
     d="M100.121 76.148h1.418v2.84h-1.418zm0 0"
     fill="#f6f5f4"
     id="path84"
     style="fill:#eae9c5" />
  <path
     d="M100.121 80.406h1.418v-1.418h-1.418zm0 0"
     fill="#c0bfbc"
     id="path85"
     style="fill:#bdae93" />
  <path
     d="M95.863 71.887h4.258v4.261h-4.258zm0 0"
     fill="#986a44"
     id="path86"
     style="fill:#654735" />
  <path
     d="M95.863 71.887h4.258v2.84h-4.258zm0 0"
     fill="#b5835a"
     id="path87"
     style="fill:#4f3829" />
  <path
     d="M95.863 71.887h1.418v2.84h-1.418zm0 0"
     fill="#f6f5f4"
     id="path88"
     style="fill:#eae9c5" />
  <path
     d="M95.863 76.148h1.418v-1.421h-1.418zm0 0"
     fill="#c0bfbc"
     id="path89"
     style="fill:#bdae93" />
  <path
     d="M100.121 71.887h1.418v2.84h-1.418zm0 0"
     fill="#f6f5f4"
     id="path90"
     style="fill:#eae9c5" />
  <path
     d="M100.121 76.148h1.418v-1.421h-1.418zm0 0"
     fill="#c0bfbc"
     id="path91"
     style="fill:#bdae93" />
  <path
     d="M95.863 67.629h4.258v4.258h-4.258zm0 0"
     fill="#986a44"
     id="path92"
     style="fill:#654735" />
  <path
     d="M95.863 67.629h4.258v2.84h-4.258zm0 0"
     fill="#b5835a"
     id="path93"
     style="fill:#4f3829" />
  <path
     d="M95.863 67.629h1.418v2.84h-1.418zm0 0"
     fill="#f6f5f4"
     id="path94"
     style="fill:#eae9c5" />
  <path
     d="M95.863 71.887h1.418v-1.418h-1.418zm0 0"
     fill="#c0bfbc"
     id="path95"
     style="fill:#bdae93" />
  <path
     d="M100.121 67.629h1.418v2.84h-1.418zm0 0"
     fill="#f6f5f4"
     id="path96"
     style="fill:#eae9c5" />
  <path
     d="M100.121 71.887h1.418v-1.418h-1.418zm0 0"
     fill="#c0bfbc"
     id="path97"
     style="fill:#bdae93" />
  <path
     d="M19.809 77.969h5.68v4.258h-5.68zm0 0"
     fill="url(#m)"
     id="path98" />
  <path
     d="M19.809 75.129h5.68v1.422h-5.68zm0 0"
     fill="url(#n)"
     id="path99" />
  <path
     d="M19.809 58.719h5.68v4.258h-5.68zm0 0"
     fill="url(#o)"
     id="path100" />
  <path
     d="M19.809 55.879h5.68V57.3h-5.68zm0 0"
     fill="url(#p)"
     id="path101" />
  <path
     d="M20.746 103.04c-1.18 0-2.129.948-2.129 2.124v9.922c0 .273.051.527.145.766h3.968a2.07 2.07 0 0 0 .145-.766v-9.922c0-1.176-.95-2.125-2.129-2.125zm7.098 0c-1.18 0-2.13.948-2.13 2.124v9.922c0 .273.052.527.145.766h3.973c.09-.239.14-.493.14-.766v-9.922c0-1.176-.949-2.125-2.128-2.125zm0 0"
     fill="url(#q)"
     id="path102"
     inkscape:label="path102" />
</svg>
