<?xml version="1.0" encoding="UTF-8" standalone="no"?>
<svg
   height="128px"
   viewBox="0 0 128 128"
   width="128px"
   version="1.1"
   id="svg18"
   sodipodi:docname="application-certificate.svg"
   inkscape:version="1.4.3 (0d15f75, 2025-12-25)"
   xmlns:inkscape="http://www.inkscape.org/namespaces/inkscape"
   xmlns:sodipodi="http://sodipodi.sourceforge.net/DTD/sodipodi-0.dtd"
   xmlns="http://www.w3.org/2000/svg"
   xmlns:svg="http://www.w3.org/2000/svg">
  <sodipodi:namedview
     id="namedview18"
     pagecolor="#ffffff"
     bordercolor="#000000"
     borderopacity="0.25"
     inkscape:showpageshadow="2"
     inkscape:pageopacity="0.0"
     inkscape:pagecheckerboard="0"
     inkscape:deskcolor="#d1d1d1"
     showguides="false"
     inkscape:zoom="3.9006463"
     inkscape:cx="89.087801"
     inkscape:cy="66.783805"
     inkscape:window-width="1920"
     inkscape:window-height="1057"
     inkscape:window-x="-8"
     inkscape:window-y="-8"
     inkscape:window-maximized="1"
     inkscape:current-layer="svg18" />
  <defs
     id="defs18" />
  <linearGradient
     id="a"
     gradientUnits="userSpaceOnUse"
     x1="54"
     x2="54"
     y1="52"
     y2="76">
    <stop
       offset="0"
       stop-color="#113e74"
       id="stop1"
       style="stop-color:#745611;stop-opacity:1;" />
    <stop
       offset="0.16116901"
       stop-color="#1a5fb4"
       id="stop2"
       style="stop-color:#b4861a;stop-opacity:1;" />
    <stop
       offset="0.27105099"
       stop-color="#76aaeb"
       id="stop3"
       style="stop-color:#ebc876;stop-opacity:1;" />
    <stop
       offset="0.39569199"
       stop-color="#154a8d"
       id="stop4"
       style="stop-color:#8d6915;stop-opacity:1;" />
    <stop
       offset="1"
       stop-color="#1a5fb4"
       id="stop5"
       style="stop-color:#b4861a;stop-opacity:1;" />
  </linearGradient>
  <radialGradient
     id="b"
     cx="32.04126"
     cy="21.085686"
     gradientTransform="matrix(1.031604 -0.00000002 0.00000001 0.749553 12.946118 10.195166)"
     gradientUnits="userSpaceOnUse"
     r="25.203476">
    <stop
       offset="0"
       stop-color="#f58b8f"
       id="stop6"
       style="stop-color:#f5d58b;stop-opacity:1;" />
    <stop
       offset="1"
       stop-color="#ed333b"
       id="stop7"
       style="stop-color:#edb533;stop-opacity:1;" />
  </radialGradient>
  <path
     d="m 28,8 h 50 l 30.04297,29.917969 V 111.97656 C 108.04297,116.41016 104.43359,120 100,120 H 28 c -4.433594,0 -8,-3.56641 -8,-8 V 16 c 0,-4.433594 3.566406,-8 8,-8 z m 0,0"
     fill="#d3e3f9"
     id="path7"
     style="display:inline;fill:#fbf1c7;fill-opacity:1"
     inkscape:label="path7" />
  <path
     d="m 78,8 v 22 c 0,4.433594 3.609375,7.921875 8.042969,7.921875 l 22.000001,-0.0039 z m 0,0"
     fill="#99c1f1"
     id="path8"
     inkscape:label="path8"
     style="display:inline;fill:#bdae93;fill-opacity:1" />
  <g
     id="g1"
     transform="matrix(1.3569998,0,0,1.3569998,-7.0386495,8.477417)">
    <path
       d="m 38,34 h 16 v 20 c 0,2.210938 1.789062,4 4,4 2.210938,0 4,1.789062 4,4 v 14.15625 l -8,-6 -8,6 V 62 c 0,-2.210938 -1.789062,-4 -4,-4 -2.210938,0 -4,-1.789062 -4,-4 z m 0,0"
       fill="url(#a)"
       id="path15"
       style="display:inline;fill:url(#linearGradient9648)" />
    <path
       d="m 59.875,47.375 c -1.488281,1.523438 -4.074219,0.957031 -5.949219,1.972656 -1.726562,0.9375 -2.523437,3.351563 -4.460937,3.679688 -2.101563,0.359375 -3.859375,-1.621094 -5.972656,-1.898438 -1.949219,-0.257812 -4.011719,1.226563 -5.773438,0.355469 C 35.808594,50.539062 35.546875,47.902344 34.003906,46.4375 32.574219,45.082031 30.035156,45.070312 29.125,43.328125 28.132812,41.441406 29.472656,39.15625 29.085938,37.0625 c -0.359376,-1.933594 -2.40625,-3.4375 -2.121094,-5.382812 0.304687,-2.109376 2.734375,-3.167969 3.652344,-5.09375 0.84375,-1.773438 0.07031,-4.191407 1.445312,-5.597657 1.488281,-1.527343 4.078125,-0.957031 5.949219,-1.976562 1.726562,-0.9375 2.523437,-3.347657 4.460937,-3.679688 2.101563,-0.359375 3.859375,1.621094 5.972656,1.902344 1.949219,0.253906 4.011719,-1.226563 5.773438,-0.355469 1.910156,0.945313 2.171875,3.582032 3.714844,5.046875 1.429687,1.355469 3.96875,1.363281 4.882812,3.105469 0.988282,1.886719 -0.351562,4.171875 0.03516,6.269531 0.359376,1.933594 2.40625,3.433594 2.121094,5.378907 -0.304687,2.109374 -2.734375,3.171874 -3.652344,5.09375 C 60.476562,43.550781 61.25,45.96875 59.875,47.375 Z m 0,0"
       fill="url(#b)"
       id="path16"
       style="display:inline;fill:url(#radialGradient2001)" />
    <path
       d="m 46,21.292969 c 7.730469,0 14,6.269531 14,14 0,7.730469 -6.269531,14 -14,14 -7.730469,0 -14,-6.269531 -14,-14 0,-7.730469 6.269531,-14 14,-14 z m 0,0"
       fill="#a9141b"
       id="path17"
       style="display:inline;fill:#ad810a;fill-opacity:1" />
    <path
       d="m 46,20 c 7.730469,0 14,6.269531 14,14 0,7.730469 -6.269531,14 -14,14 -7.730469,0 -14,-6.269531 -14,-14 0,-7.730469 6.269531,-14 14,-14 z m 0,0"
       fill="#e01b24"
       id="path18"
       style="display:inline;fill:#e5b010;fill-opacity:1"
       inkscape:label="path18" />
  </g>
  <linearGradient
     gradientUnits="userSpaceOnUse"
     x1="54"
     x2="54"
     y1="52"
     y2="76"
     id="linearGradient9648">
    <stop
       offset="0"
       stop-color="#113e74"
       id="stop1-1"
       style="stop-color:#745a0b;stop-opacity:1" />
    <stop
       offset="0.16116901"
       stop-color="#1a5fb4"
       id="stop2-1"
       style="stop-color:#b88f11;stop-opacity:1" />
    <stop
       offset="0.27105099"
       stop-color="#76aaeb"
       id="stop3-1"
       style="stop-color:#efd26c;stop-opacity:1" />
    <stop
       offset="0.39569199"
       stop-color="#154a8d"
       id="stop4-1"
       style="stop-color:#90720d;stop-opacity:1" />
    <stop
       offset="1"
       stop-color="#1a5fb4"
       id="stop5-1"
       style="stop-color:#b88f11;stop-opacity:1" />
  </linearGradient>
  <radialGradient
     cx="32.04126"
     cy="21.085686"
     gradientTransform="matrix(1.031604,-2e-8,1e-8,0.749553,12.946118,10.195166)"
     gradientUnits="userSpaceOnUse"
     r="25.203476"
     id="radialGradient2001">
    <stop
       offset="0"
       stop-color="#f58b8f"
       id="stop6-1"
       style="stop-color:#f8db83;stop-opacity:1" />
    <stop
       offset="1"
       stop-color="#ed333b"
       id="stop7-1"
       style="stop-color:#f4bd27;stop-opacity:1" />
  </radialGradient>
</svg>
