<?xml version="1.0" encoding="UTF-8" standalone="no"?>
<svg
   height="128px"
   viewBox="0 0 128 128"
   width="128px"
   version="1.1"
   id="svg23"
   sodipodi:docname="audio-x-generic.svg"
   inkscape:version="1.4.3 (0d15f75, 2025-12-25)"
   xmlns:inkscape="http://www.inkscape.org/namespaces/inkscape"
   xmlns:sodipodi="http://sodipodi.sourceforge.net/DTD/sodipodi-0.dtd"
   xmlns:xlink="http://www.w3.org/1999/xlink"
   xmlns="http://www.w3.org/2000/svg"
   xmlns:svg="http://www.w3.org/2000/svg">
  <defs
     id="defs23">
    <linearGradient
       id="linearGradient33"
       gradientUnits="userSpaceOnUse">
      <stop
         offset="0"
         stop-color="#1a6842"
         id="stop28"
         style="stop-color:#af3a03;stop-opacity:1" />
      <stop
         offset="0.123537"
         stop-color="#2dbd7d"
         id="stop29"
         style="stop-color:#d65d01;stop-opacity:1" />
      <stop
         offset="0.267634"
         stop-color="#26a269"
         id="stop30"
         style="stop-color:#d65d01;stop-opacity:1" />
      <stop
         offset="0.614059"
         stop-color="#26a269"
         id="stop31"
         style="stop-color:#d65d01;stop-opacity:1" />
      <stop
         offset="0.864285"
         stop-color="#38f39d"
         id="stop32"
         style="stop-color:#fe8019;stop-opacity:1" />
      <stop
         offset="1"
         stop-color="#2dc47e"
         id="stop33"
         style="stop-color:#d65d01;stop-opacity:1" />
    </linearGradient>
    <linearGradient
       id="linearGradient27"
       gradientUnits="userSpaceOnUse">
      <stop
         offset="0"
         stop-color="#38ec8b"
         id="stop26"
         style="stop-color:#fe8019;stop-opacity:1" />
      <stop
         offset="1"
         stop-color="#33d17a"
         id="stop27"
         style="stop-color:#af3a03;stop-opacity:1" />
    </linearGradient>
    <linearGradient
       id="linearGradient25"
       gradientUnits="userSpaceOnUse">
      <stop
         offset="0"
         stop-color="#8ff0a4"
         id="stop24"
         style="stop-color:#fe8019;stop-opacity:1" />
      <stop
         offset="1"
         stop-color="#8ff0a4"
         stop-opacity="0"
         id="stop25"
         style="stop-color:#d65d01;stop-opacity:1" />
    </linearGradient>
    <linearGradient
       id="linearGradient34"
       x1="49.819336"
       x2="0"
       xlink:href="#linearGradient33"
       y1="92"
       y2="92" />
  </defs>
  <sodipodi:namedview
     id="namedview23"
     pagecolor="#ffffff"
     bordercolor="#000000"
     borderopacity="0.25"
     inkscape:showpageshadow="2"
     inkscape:pageopacity="0.0"
     inkscape:pagecheckerboard="0"
     inkscape:deskcolor="#d1d1d1"
     inkscape:zoom="6.6796875"
     inkscape:cx="64"
     inkscape:cy="64"
     inkscape:window-width="1920"
     inkscape:window-height="1057"
     inkscape:window-x="-8"
     inkscape:window-y="-8"
     inkscape:window-maximized="1"
     inkscape:current-layer="svg23" />
  <linearGradient
     id="a"
     gradientUnits="userSpaceOnUse"
     x1="50"
     x2="106"
     y1="30"
     y2="30">
    <stop
       offset="0"
       stop-color="#1a6842"
       id="stop1" />
    <stop
       offset="0.123537"
       stop-color="#2dbd7d"
       id="stop2" />
    <stop
       offset="0.267634"
       stop-color="#26a269"
       id="stop3" />
    <stop
       offset="0.789903"
       stop-color="#26a269"
       id="stop4" />
    <stop
       offset="0.864285"
       stop-color="#26a269"
       id="stop5" />
    <stop
       offset="1"
       stop-color="#2dc47e"
       id="stop6" />
  </linearGradient>
  <linearGradient
     id="b"
     gradientUnits="userSpaceOnUse">
    <stop
       offset="0"
       stop-color="#1a6842"
       id="stop7" />
    <stop
       offset="0.123537"
       stop-color="#2dbd7d"
       id="stop8" />
    <stop
       offset="0.267634"
       stop-color="#26a269"
       id="stop9" />
    <stop
       offset="0.614059"
       stop-color="#26a269"
       id="stop10" />
    <stop
       offset="0.864285"
       stop-color="#38f39d"
       id="stop11" />
    <stop
       offset="1"
       stop-color="#2dc47e"
       id="stop12" />
  </linearGradient>
  <linearGradient
     id="c"
     x1="115.819336"
     x2="66"
     xlink:href="#b"
     y1="92"
     y2="92" />
  <linearGradient
     id="d"
     gradientUnits="userSpaceOnUse">
    <stop
       offset="0"
       stop-color="#38ec8b"
       id="stop13"
       style="stop-color:#fe8019;stop-opacity:1" />
    <stop
       offset="1"
       stop-color="#33d17a"
       id="stop14"
       style="stop-color:#af3a03;stop-opacity:1" />
  </linearGradient>
  <radialGradient
     id="e"
     cx="356.208099"
     cy="2453.477783"
     gradientTransform="matrix(0.732441 0.48694 -0.553636 0.832759 1185.43158 -2128.607574)"
     r="25.000025"
     xlink:href="#d" />
  <linearGradient
     id="f"
     x1="49.819336"
     x2="0"
     xlink:href="#linearGradient33"
     y1="92"
     y2="92" />
  <radialGradient
     id="g"
     cx="290.12616"
     cy="2488.878906"
     gradientTransform="matrix(0.732441 0.48694 -0.553636 0.832759 1185.43158 -2128.607574)"
     r="25.000025"
     xlink:href="#linearGradient27" />
  <linearGradient
     id="h"
     gradientUnits="userSpaceOnUse">
    <stop
       offset="0"
       stop-color="#8ff0a4"
       id="stop15"
       style="stop-color:#fe8019;stop-opacity:1" />
    <stop
       offset="1"
       stop-color="#8ff0a4"
       stop-opacity="0"
       id="stop16"
       style="stop-color:#d65d01;stop-opacity:1" />
  </linearGradient>
  <radialGradient
     id="i"
     cx="312.657257"
     cy="2706.578613"
     gradientTransform="matrix(1.054787,0.0168857,-0.0144512,0.902714,-274.04842,-2365.4684)"
     r="14.806045"
     xlink:href="#h" />
  <radialGradient
     id="j"
     cx="312.657257"
     cy="2706.578613"
     gradientTransform="matrix(1.054787,0.0168857,-0.0144512,0.902714,-204.51572,-2365.4684)"
     r="14.806045"
     xlink:href="#linearGradient25" />
  <path
     d="m 39.882812 36.007812 v 9.992188 h 10.117188 v -4 c 0 -5.523438 4.476562 -10 10 -10 h 30 c 5.523438 0 10 4.476562 10 10 v 4 h 16.117188 v -9.988281 c 0 -5.585938 -4.53125 -10.117188 -10.117188 -10.117188 h -6 v 0.105469 h -50 v -0.105469 c -5.585938 0 -10.113281 4.527344 -10.117188 10.113281 z m 0 0"
     fill="url(#a)"
     fill-rule="evenodd"
     id="path16"
     style="fill:url(#f)" />
  <path
     d="m 33.882812 36.082031 v 41.058594 l 13.925782 12.828125 c 0.386718 0.351562 0.941406 0.445312 1.421875 0.234375 c 0.476562 -0.207031 0.785156 -0.679687 0.785156 -1.203125 v -50.988281 c 0 -5.527344 4.484375 -10.011719 10.015625 -10.011719 h 30.09375 c 5.4375 0 9.847656 4.410156 9.847656 9.847656 v 39.296875 l 15.945313 14.855469 h 0.082031 v -56.085938 c 0 -13.207031 -10.707031 -23.914062 -23.914062 -23.914062 h -34.117188 c -13.300781 0 -24.085938 10.78125 -24.085938 24.082031 z m 0 0"
     fill="#33d17a"
     id="path17"
     style="fill:#d65d01" />
  <g
     fill-rule="evenodd"
     id="g21">
    <path
       d="m 116 95 c 0 13.808594 -11.191406 25 -25 25 s -25 -11.191406 -25 -25 s 11.191406 -25 25 -25 s 25 11.191406 25 25 z m 0 0"
       fill="url(#c)"
       id="path18"
       style="fill:url(#f)" />
    <path
       d="m 116 91 c 0 13.808594 -11.191406 25 -25 25 s -25 -11.191406 -25 -25 s 11.191406 -25 25 -25 s 25 11.191406 25 25 z m 0 0"
       fill="url(#e)"
       id="path19" />
    <path
       d="m 50 95 c 0 13.808594 -11.191406 25 -25 25 s -25 -11.191406 -25 -25 s 11.191406 -25 25 -25 s 25 11.191406 25 25 z m 0 0"
       fill="url(#f)"
       id="path20"
       style="fill:url(#f)" />
    <path
       d="m 50 91 c 0 13.808594 -11.191406 25 -25 25 s -25 -11.191406 -25 -25 s 11.191406 -25 25 -25 s 25 11.191406 25 25 z m 0 0"
       fill="url(#g)"
       id="path21" />
  </g>
  <path
     d="m 32.804688,84.453125 c 0,8.175781 -6.628907,14.804687 -14.804688,14.804687 -8.175781,0 -14.804688,-6.628906 -14.804688,-14.804687 0,-8.175781 6.628907,-14.804687 14.804688,-14.804687 8.175781,0 14.804688,6.628906 14.804688,14.804687 z m 0,0"
     fill="url(#i)"
     id="path22"
     style="fill:url(#i)" />
  <path
     d="m 102.33984,84.453125 c 0,8.175781 -6.628902,14.804687 -14.80859,14.804687 -8.175781,0 -14.804688,-6.628906 -14.804688,-14.804687 0,-8.175781 6.628907,-14.804687 14.804688,-14.804687 8.179688,0 14.80859,6.628906 14.80859,14.804687 z m 0,0"
     fill="url(#j)"
     id="path23"
     style="fill:url(#j)" />
</svg>
