<?xml version="1.0" encoding="UTF-8" standalone="no"?>
<svg
   height="128px"
   viewBox="0 0 128 128"
   width="128px"
   version="1.1"
   id="svg7"
   sodipodi:docname="image-x-generic.svg"
   inkscape:version="1.4.3 (0d15f75, 2025-12-25)"
   xmlns:inkscape="http://www.inkscape.org/namespaces/inkscape"
   xmlns:sodipodi="http://sodipodi.sourceforge.net/DTD/sodipodi-0.dtd"
   xmlns="http://www.w3.org/2000/svg"
   xmlns:svg="http://www.w3.org/2000/svg">
  <defs
     id="defs7" />
  <sodipodi:namedview
     id="namedview7"
     pagecolor="#ffffff"
     bordercolor="#000000"
     borderopacity="0.25"
     inkscape:showpageshadow="2"
     inkscape:pageopacity="0.0"
     inkscape:pagecheckerboard="0"
     inkscape:deskcolor="#d1d1d1"
     inkscape:zoom="6.6796875"
     inkscape:cx="64"
     inkscape:cy="64"
     inkscape:window-width="1920"
     inkscape:window-height="1057"
     inkscape:window-x="-8"
     inkscape:window-y="-8"
     inkscape:window-maximized="1"
     inkscape:current-layer="svg7" />
  <linearGradient
     id="a"
     gradientUnits="userSpaceOnUse"
     x1="16.280764"
     x2="93.490864"
     y1="36.90527325"
     y2="96.5379485">
    <stop
       offset="0"
       stop-color="#1a5fb4"
       id="stop1"
       style="stop-color:#076678;stop-opacity:1" />
    <stop
       offset="0.11613"
       stop-color="#813d9c"
       id="stop2"
       style="stop-color:#8f3f71;stop-opacity:1" />
    <stop
       offset="0.377272"
       stop-color="#ed333b"
       id="stop3"
       style="stop-color:#cc241d;stop-opacity:1" />
    <stop
       offset="0.666759"
       stop-color="#ff7800"
       id="stop4"
       style="stop-color:#d65d01;stop-opacity:1" />
    <stop
       offset="1"
       stop-color="#f6d32d"
       id="stop5"
       style="stop-color:#fabd2f;stop-opacity:1" />
  </linearGradient>
  <path
     d="m 16 27.929688 h 96 c 4.433594 0 8 3.570312 8 8 v 50.070312 l -30 30 h -74 c -4.433594 0 -8 -3.566406 -8 -8 v -72.070312 c 0 -4.429688 3.566406 -8 8 -8 z m 0 0"
     fill="#f6f5f4"
     id="path5"
     style="fill:#fbf1c7" />
  <path
     d="m 120 86.125 h -22 c -4.433594 0 -8 3.570312 -8 8 v 21.875 z m 0 0"
     fill="#deddda"
     id="path6"
     style="fill:#bdae93" />
  <path
     d="m 16 36 v 72 h 74 v -13.875 c 0 -4.433594 3.566406 -8 8 -8 h 14 v -50.125 z m 0 0"
     fill="url(#a)"
     id="path7" />
</svg>
