<?xml version="1.0" encoding="UTF-8" standalone="no"?>
<svg
   height="128px"
   viewBox="0 0 128 128"
   width="128px"
   version="1.1"
   id="svg3"
   sodipodi:docname="inode-symlink.svg"
   inkscape:version="1.4.2 (ebf0e940d0, 2025-05-08)"
   xmlns:inkscape="http://www.inkscape.org/namespaces/inkscape"
   xmlns:sodipodi="http://sodipodi.sourceforge.net/DTD/sodipodi-0.dtd"
   xmlns="http://www.w3.org/2000/svg"
   xmlns:svg="http://www.w3.org/2000/svg">
  <defs
     id="defs3" />
  <sodipodi:namedview
     id="namedview3"
     pagecolor="#ffffff"
     bordercolor="#000000"
     borderopacity="0.25"
     inkscape:showpageshadow="2"
     inkscape:pageopacity="0.0"
     inkscape:pagecheckerboard="0"
     inkscape:deskcolor="#d1d1d1"
     inkscape:zoom="4.328125"
     inkscape:cx="63.884477"
     inkscape:cy="86.180505"
     inkscape:window-width="1366"
     inkscape:window-height="768"
     inkscape:window-x="0"
     inkscape:window-y="0"
     inkscape:window-maximized="1"
     inkscape:current-layer="svg3" />
  <path
     d="m 16 27.929688 h 96 c 4.433594 0 8 3.570312 8 8 v 50.070312 l -30 30 h -74 c -4.433594 0 -8 -3.566406 -8 -8 v -72.070312 c 0 -4.429688 3.566406 -8 8 -8 z m 0 0"
     fill="#f6f5f4"
     id="path1"
     style="fill:#eae9c5" />
  <g
     fill="#deddda"
     id="g3"
     style="fill:#d5c4a1">
    <path
       d="m 120 86.125 h -22 c -4.433594 0 -8 3.570312 -8 8 v 21.875 z m 0 0"
       id="path2"
       style="fill:#d5c4a1" />
    <path
       d="m 54 60 c -3.324219 0 -6 2.675781 -6 6 v 16 c 0 3.324219 2.675781 6 6 6 h 16 c 3.324219 0 6 -2.675781 6 -6 v -8 c 0 -1.105469 -0.894531 -2 -2 -2 s -2 0.894531 -2 2 v 8 c 0 1.109375 -0.890625 2 -2 2 h -16 c -1.109375 0 -2 -0.890625 -2 -2 v -16 c 0 -1.109375 0.890625 -2 2 -2 h 8 c 1.105469 0 2 -0.894531 2 -2 s -0.894531 -2 -2 -2 z m 14 -4 c -1.105469 0 -2 0.894531 -2 2 s 0.894531 2 2 2 h 5.167969 l -10.582031 10.582031 c -0.785157 0.78125 -0.785157 2.050781 0 2.832031 c 0.78125 0.78125 2.046874 0.78125 2.828124 0 l 10.585938 -10.585937 v 5.171875 c 0 1.105469 0.894531 2 2 2 s 2 -0.894531 2 -2 v -10 c 0 -0.175781 -0.023438 -0.347656 -0.070312 -0.515625 c -0.046876 -0.171875 -0.113282 -0.332031 -0.199219 -0.484375 c -0.085938 -0.152344 -0.195313 -0.289062 -0.316407 -0.414062 c -0.03125 -0.023438 -0.0625 -0.046876 -0.09375 -0.070313 c -0.109374 -0.101563 -0.234374 -0.1875 -0.363281 -0.257813 c -0.074219 -0.039062 -0.152343 -0.070312 -0.230469 -0.097656 c -0.101562 -0.042968 -0.207031 -0.074218 -0.3125 -0.097656 c -0.082031 -0.019531 -0.160156 -0.027344 -0.242187 -0.035156 c -0.058594 -0.019532 -0.113281 -0.019532 -0.171875 -0.023438 z m 0 0"
       id="path3"
       style="fill:#d5c4a1" />
  </g>
</svg>
