<?xml version="1.0" encoding="UTF-8" standalone="no"?>
<svg
   height="128px"
   viewBox="0 0 128 128"
   width="128px"
   version="1.1"
   id="svg12"
   sodipodi:docname="package-x-generic.svg"
   inkscape:version="1.4.3 (0d15f75, 2025-12-25)"
   xmlns:inkscape="http://www.inkscape.org/namespaces/inkscape"
   xmlns:sodipodi="http://sodipodi.sourceforge.net/DTD/sodipodi-0.dtd"
   xmlns="http://www.w3.org/2000/svg"
   xmlns:svg="http://www.w3.org/2000/svg">
  <defs
     id="defs12" />
  <sodipodi:namedview
     id="namedview12"
     pagecolor="#ffffff"
     bordercolor="#000000"
     borderopacity="0.25"
     inkscape:showpageshadow="2"
     inkscape:pageopacity="0.0"
     inkscape:pagecheckerboard="0"
     inkscape:deskcolor="#d1d1d1"
     inkscape:zoom="6.6796875"
     inkscape:cx="64"
     inkscape:cy="70.437427"
     inkscape:window-width="1920"
     inkscape:window-height="1057"
     inkscape:window-x="-8"
     inkscape:window-y="-8"
     inkscape:window-maximized="1"
     inkscape:current-layer="svg12" />
  <filter
     id="a"
     height="1"
     width="1"
     x="0"
     y="0">
    <feColorMatrix
       in="SourceGraphic"
       type="matrix"
       values="0 0 0 0 1 0 0 0 0 1 0 0 0 0 1 0 0 0 1 0"
       id="feColorMatrix1" />
  </filter>
  <mask
     id="b">
    <g
       filter="url(#a)"
       id="g1">
      <rect
         fill-opacity="0.1"
         height="128"
         width="128"
         id="rect1" />
    </g>
  </mask>
  <clipPath
     id="c">
    <rect
       height="152"
       width="192"
       id="rect2" />
  </clipPath>
  <path
     d="m 28 8 h 50 l 30.042969 29.917969 v 74.058593 c 0 4.433594 -3.609375 8.023438 -8.042969 8.023438 h -72 c -4.433594 0 -8 -3.566406 -8 -8 v -96 c 0 -4.433594 3.566406 -8 8 -8 z m 0 0"
     fill="#ded4ca"
     id="path2"
     style="fill:#a89984" />
  <path
     d="m 78 8 v 22 c 0 4.433594 3.609375 7.921875 8.042969 7.921875 l 22 -0.003906 z m 0 0"
     fill="#c9b8a7"
     id="path3"
     style="fill:#928374" />
  <path
     d="m 60 60 v 4 h 4 v -2 h 4 v -2 z m 4 4 v 2 h -4 v 4 h 4 v -2 h 4 v -4 z m 0 6 v 2 h -4 v 4 h 4 v -2 h 4 v -4 z m 0 6 v 2 h -4 v 4 h 4 v -2 h 4 v -4 z m 0 6 v 2 h -4 v 4 h 4 v -2 h 4 v -4 z m 0 6 v 2 h -4 v 4 h 4 v -2 h 4 v -4 z m 0 6 v 2 h -4 v 4 h 4 v -2 h 4 v -4 z m 0 6 v 2 h -4 v 4 h 4 v -2 h 4 v -4 z m 0 6 v 2 h -4 v 4 h 4 v -2 h 4 v -4 z m 0 6 v 2 h -4 v 4 h 4 v -2 h 4 v -4 z m 0 0"
     fill="#ffffff"
     id="path4"
     style="fill:#f9f5d7" />
  <g
     clip-path="url(#c)"
     mask="url(#b)"
     transform="matrix(1 0 0 1 -8 -16)"
     id="g5">
    <path
       d="m 68 67 c -2.214844 0 -4 1.785156 -4 4 v 10 c 0 2.214844 1.785156 4 4 4 v 8 c 0 1.109375 0.890625 2 2 2 h 4 c 1.109375 0 2 -0.890625 2 -2 v -8 c 2.214844 0 4 -1.785156 4 -4 v -10 c 0 -2.214844 -1.785156 -4 -4 -4 z m 2 22 h 4 v 4 h -4 z m 0 0"
       id="path5" />
  </g>
  <path
     d="m 60 62 v 4 h 4 v -2 h 4 v -2 z m 4 4 v 2 h -4 v 4 h 4 v -2 h 4 v -4 z m 0 6 v 2 h -4 v 4 h 4 v -2 h 4 v -4 z m 0 6 v 2 h -4 v 4 h 4 v -2 h 4 v -4 z m 0 6 v 2 h -4 v 4 h 4 v -2 h 4 v -4 z m 0 6 v 2 h -4 v 4 h 4 v -2 h 4 v -4 z m 0 6 v 2 h -4 v 4 h 4 v -2 h 4 v -4 z m 0 6 v 2 h -4 v 4 h 4 v -2 h 4 v -4 z m 0 6 v 2 h -4 v 4 h 4 v -2 h 4 v -4 z m 0 6 v 2 h -4 v 4 h 4 v -2 h 4 v -4 z m 0 0"
     fill="#c0bfbc"
     id="path6"
     style="fill:#665c54" />
  <path
     d="m 62 57 c -1.109375 0 -2 0.890625 -2 2 v 16 c 0 1.109375 0.890625 2 2 2 h 4 c 1.109375 0 2 -0.890625 2 -2 v -16 c 0 -1.109375 -0.890625 -2 -2 -2 z m 0 14 h 4 v 4 h -4 z m 0 0"
     fill="#77767b"
     id="path7"
     style="fill:#1d2021" />
  <path
     d="m 58.503906 49 h 10.992188 c 1.382812 0 2.503906 1.121094 2.503906 2.503906 v 12.992188 c 0 1.382812 -1.121094 2.503906 -2.503906 2.503906 h -10.992188 c -1.382812 0 -2.503906 -1.121094 -2.503906 -2.503906 v -12.992188 c 0 -1.382812 1.121094 -2.503906 2.503906 -2.503906 z m 0 0"
     fill="#77767b"
     id="path8"
     style="fill:#1d2021" />
  <path
     d="m 58.945312 47 h 10.109376 c 1.628906 0 2.945312 1.316406 2.945312 2.945312 v 12.109376 c 0 1.628906 -1.316406 2.945312 -2.945312 2.945312 h -10.109376 c -1.628906 0 -2.945312 -1.316406 -2.945312 -2.945312 v -12.109376 c 0 -1.628906 1.316406 -2.945312 2.945312 -2.945312 z m 0 0"
     fill="#9a9996"
     id="path9"
     style="fill:#3c3836" />
  <path
     d="m 62 53 c -1.109375 0 -2 0.890625 -2 2 v 18 c 0 1.109375 0.890625 2 2 2 h 4 c 1.109375 0 2 -0.890625 2 -2 v -18 c 0 -1.109375 -0.890625 -2 -2 -2 z m 0 16 h 4 v 4 h -4 z m 0 0"
     fill="#ffffff"
     id="path10"
     style="fill:#fbf1c7" />
  <path
     d="m 64 59 c 1.105469 0 2 -0.894531 2 -2 v -6 c 0 -1.105469 -0.894531 -2 -2 -2 s -2 0.894531 -2 2 v 6 c 0 1.105469 0.894531 2 2 2 z m 0 0"
     fill="#77767b"
     id="path11"
     style="fill:#282828" />
  <path
     d="m 64 57 c 1.105469 0 2 -0.894531 2 -2 v -4 c 0 -1.105469 -0.894531 -2 -2 -2 s -2 0.894531 -2 2 v 4 c 0 1.105469 0.894531 2 2 2 z m 0 0"
     fill="#9a9996"
     id="path12"
     style="fill:#3c3836" />
</svg>
