<?xml version="1.0" encoding="UTF-8" standalone="no"?>
<svg
   height="128px"
   viewBox="0 0 128 128"
   width="128px"
   version="1.1"
   id="svg12"
   sodipodi:docname="text-x-generic.svg"
   inkscape:version="1.4.2 (ebf0e940d0, 2025-05-08)"
   xmlns:inkscape="http://www.inkscape.org/namespaces/inkscape"
   xmlns:sodipodi="http://sodipodi.sourceforge.net/DTD/sodipodi-0.dtd"
   xmlns="http://www.w3.org/2000/svg"
   xmlns:svg="http://www.w3.org/2000/svg">
  <defs
     id="defs12" />
  <sodipodi:namedview
     id="namedview12"
     pagecolor="#ffffff"
     bordercolor="#000000"
     borderopacity="0.25"
     inkscape:showpageshadow="2"
     inkscape:pageopacity="0.0"
     inkscape:pagecheckerboard="0"
     inkscape:deskcolor="#d1d1d1"
     inkscape:zoom="4.328125"
     inkscape:cx="63.884477"
     inkscape:cy="64"
     inkscape:window-width="1366"
     inkscape:window-height="768"
     inkscape:window-x="0"
     inkscape:window-y="0"
     inkscape:window-maximized="1"
     inkscape:current-layer="svg12" />
  <path
     d="m 28 8 h 50 l 30.042969 29.917969 v 74.058593 c 0 4.433594 -3.609375 8.023438 -8.042969 8.023438 h -72 c -4.433594 0 -8 -3.566406 -8 -8 v -96 c 0 -4.433594 3.566406 -8 8 -8 z m 0 0"
     fill="#f6f5f4"
     id="path1"
     style="fill:#eae9c5" />
  <g
     fill="#deddda"
     id="g12"
     style="fill:#d5c4a1">
    <path
       d="m 78 8 v 22 c 0 4.433594 3.609375 7.921875 8.042969 7.921875 l 22 -0.003906 z m 0 0"
       id="path2"
       style="fill:#d5c4a1" />
    <path
       d="m 34 100 h 60 c 1.105469 0 2 0.894531 2 2 s -0.894531 2 -2 2 h -60 c -1.105469 0 -2 -0.894531 -2 -2 s 0.894531 -2 2 -2 z m 0 0"
       id="path3"
       style="fill:#d5c4a1" />
    <path
       d="m 34 92 h 60 c 1.105469 0 2 0.894531 2 2 s -0.894531 2 -2 2 h -60 c -1.105469 0 -2 -0.894531 -2 -2 s 0.894531 -2 2 -2 z m 0 0"
       id="path4"
       style="fill:#d5c4a1" />
    <path
       d="m 34 84 h 60 c 1.105469 0 2 0.894531 2 2 s -0.894531 2 -2 2 h -60 c -1.105469 0 -2 -0.894531 -2 -2 s 0.894531 -2 2 -2 z m 0 0"
       id="path5"
       style="fill:#d5c4a1" />
    <path
       d="m 34 76 h 60 c 1.105469 0 2 0.894531 2 2 s -0.894531 2 -2 2 h -60 c -1.105469 0 -2 -0.894531 -2 -2 s 0.894531 -2 2 -2 z m 0 0"
       id="path6"
       style="fill:#d5c4a1" />
    <path
       d="m 34 68 h 60 c 1.105469 0 2 0.894531 2 2 s -0.894531 2 -2 2 h -60 c -1.105469 0 -2 -0.894531 -2 -2 s 0.894531 -2 2 -2 z m 0 0"
       id="path7"
       style="fill:#d5c4a1" />
    <path
       d="m 34 60 h 60 c 1.105469 0 2 0.894531 2 2 s -0.894531 2 -2 2 h -60 c -1.105469 0 -2 -0.894531 -2 -2 s 0.894531 -2 2 -2 z m 0 0"
       id="path8"
       style="fill:#d5c4a1" />
    <path
       d="m 34 52 h 60 c 1.105469 0 2 0.894531 2 2 s -0.894531 2 -2 2 h -60 c -1.105469 0 -2 -0.894531 -2 -2 s 0.894531 -2 2 -2 z m 0 0"
       id="path9"
       style="fill:#d5c4a1" />
    <path
       d="m 34 44 h 36 c 1.105469 0 2 0.59375 2 1.324219 v 1.351562 c 0 0.730469 -0.894531 1.324219 -2 1.324219 h -36 c -1.105469 0 -2 -0.59375 -2 -1.324219 v -1.351562 c 0 -0.730469 0.894531 -1.324219 2 -1.324219 z m 0 0"
       id="path10"
       style="fill:#d5c4a1" />
    <path
       d="m 34 36 h 36 c 1.105469 0 2 0.59375 2 1.324219 v 1.351562 c 0 0.730469 -0.894531 1.324219 -2 1.324219 h -36 c -1.105469 0 -2 -0.59375 -2 -1.324219 v -1.351562 c 0 -0.730469 0.894531 -1.324219 2 -1.324219 z m 0 0"
       id="path11"
       style="fill:#d5c4a1" />
    <path
       d="m 34 28 h 36 c 1.105469 0 2 0.59375 2 1.324219 v 1.351562 c 0 0.730469 -0.894531 1.324219 -2 1.324219 h -36 c -1.105469 0 -2 -0.59375 -2 -1.324219 v -1.351562 c 0 -0.730469 0.894531 -1.324219 2 -1.324219 z m 0 0"
       id="path12"
       style="fill:#d5c4a1" />
  </g>
</svg>
