<?xml version="1.0" encoding="UTF-8" standalone="no"?>
<svg
   height="128px"
   viewBox="0 0 128 128"
   width="128px"
   version="1.1"
   id="svg56"
   sodipodi:docname="x-office-document-template.svg"
   inkscape:version="1.4.3 (0d15f75, 2025-12-25)"
   xmlns:inkscape="http://www.inkscape.org/namespaces/inkscape"
   xmlns:sodipodi="http://sodipodi.sourceforge.net/DTD/sodipodi-0.dtd"
   xmlns="http://www.w3.org/2000/svg"
   xmlns:svg="http://www.w3.org/2000/svg">
  <defs
     id="defs56" />
  <sodipodi:namedview
     id="namedview56"
     pagecolor="#ffffff"
     bordercolor="#000000"
     borderopacity="0.25"
     inkscape:showpageshadow="2"
     inkscape:pageopacity="0.0"
     inkscape:pagecheckerboard="0"
     inkscape:deskcolor="#d1d1d1"
     inkscape:zoom="6.6796875"
     inkscape:cx="64"
     inkscape:cy="64"
     inkscape:window-width="1920"
     inkscape:window-height="1057"
     inkscape:window-x="-8"
     inkscape:window-y="-8"
     inkscape:window-maximized="1"
     inkscape:current-layer="svg56" />
  <clipPath
     id="a">
    <path
       d="m 20 8 h 89 v 112 h -89 z m 0 0"
       id="path1" />
  </clipPath>
  <clipPath
     id="b">
    <path
       d="m 28 8 c -4.433594 0 -8 3.566406 -8 8 v 96 c 0 4.433594 3.566406 8 8 8 h 72 c 4.433594 0 8.046875 -3.589844 8.042969 -8.019531 v -74.0625 l -22 0.007812 c -4.433594 0 -8.042969 -3.492187 -8.042969 -7.925781 v -22 z m 0 0"
       id="path2" />
  </clipPath>
  <clipPath
     id="c">
    <path
       d="m 80 100 h 16 v 4 h -16 z m 0 0"
       id="path3" />
  </clipPath>
  <clipPath
     id="d">
    <path
       d="m 28 8 c -4.433594 0 -8 3.566406 -8 8 v 96 c 0 4.433594 3.566406 8 8 8 h 72 c 4.433594 0 8.046875 -3.589844 8.042969 -8.019531 v -74.0625 l -22 0.007812 c -4.433594 0 -8.042969 -3.492187 -8.042969 -7.925781 v -22 z m 0 0"
       id="path4" />
  </clipPath>
  <clipPath
     id="e">
    <path
       d="m 80 92 h 16 v 4 h -16 z m 0 0"
       id="path5" />
  </clipPath>
  <clipPath
     id="f">
    <path
       d="m 28 8 c -4.433594 0 -8 3.566406 -8 8 v 96 c 0 4.433594 3.566406 8 8 8 h 72 c 4.433594 0 8.046875 -3.589844 8.042969 -8.019531 v -74.0625 l -22 0.007812 c -4.433594 0 -8.042969 -3.492187 -8.042969 -7.925781 v -22 z m 0 0"
       id="path6" />
  </clipPath>
  <clipPath
     id="g">
    <path
       d="m 80 84 h 16 v 4 h -16 z m 0 0"
       id="path7" />
  </clipPath>
  <clipPath
     id="h">
    <path
       d="m 28 8 c -4.433594 0 -8 3.566406 -8 8 v 96 c 0 4.433594 3.566406 8 8 8 h 72 c 4.433594 0 8.046875 -3.589844 8.042969 -8.019531 v -74.0625 l -22 0.007812 c -4.433594 0 -8.042969 -3.492187 -8.042969 -7.925781 v -22 z m 0 0"
       id="path8" />
  </clipPath>
  <clipPath
     id="i">
    <path
       d="m 80 76 h 16 v 4 h -16 z m 0 0"
       id="path9" />
  </clipPath>
  <clipPath
     id="j">
    <path
       d="m 28 8 c -4.433594 0 -8 3.566406 -8 8 v 96 c 0 4.433594 3.566406 8 8 8 h 72 c 4.433594 0 8.046875 -3.589844 8.042969 -8.019531 v -74.0625 l -22 0.007812 c -4.433594 0 -8.042969 -3.492187 -8.042969 -7.925781 v -22 z m 0 0"
       id="path10" />
  </clipPath>
  <clipPath
     id="k">
    <path
       d="m 80 68 h 16 v 4 h -16 z m 0 0"
       id="path11" />
  </clipPath>
  <clipPath
     id="l">
    <path
       d="m 28 8 c -4.433594 0 -8 3.566406 -8 8 v 96 c 0 4.433594 3.566406 8 8 8 h 72 c 4.433594 0 8.046875 -3.589844 8.042969 -8.019531 v -74.0625 l -22 0.007812 c -4.433594 0 -8.042969 -3.492187 -8.042969 -7.925781 v -22 z m 0 0"
       id="path12" />
  </clipPath>
  <clipPath
     id="m">
    <path
       d="m 80 60 h 16 v 4 h -16 z m 0 0"
       id="path13" />
  </clipPath>
  <clipPath
     id="n">
    <path
       d="m 28 8 c -4.433594 0 -8 3.566406 -8 8 v 96 c 0 4.433594 3.566406 8 8 8 h 72 c 4.433594 0 8.046875 -3.589844 8.042969 -8.019531 v -74.0625 l -22 0.007812 c -4.433594 0 -8.042969 -3.492187 -8.042969 -7.925781 v -22 z m 0 0"
       id="path14" />
  </clipPath>
  <clipPath
     id="o">
    <path
       d="m 80 52 h 16 v 4 h -16 z m 0 0"
       id="path15" />
  </clipPath>
  <clipPath
     id="p">
    <path
       d="m 28 8 c -4.433594 0 -8 3.566406 -8 8 v 96 c 0 4.433594 3.566406 8 8 8 h 72 c 4.433594 0 8.046875 -3.589844 8.042969 -8.019531 v -74.0625 l -22 0.007812 c -4.433594 0 -8.042969 -3.492187 -8.042969 -7.925781 v -22 z m 0 0"
       id="path16" />
  </clipPath>
  <clipPath
     id="q">
    <path
       d="m 32 44 h 64 v 4 h -64 z m 0 0"
       id="path17" />
  </clipPath>
  <clipPath
     id="r">
    <path
       d="m 28 8 c -4.433594 0 -8 3.566406 -8 8 v 96 c 0 4.433594 3.566406 8 8 8 h 72 c 4.433594 0 8.046875 -3.589844 8.042969 -8.019531 v -74.0625 l -22 0.007812 c -4.433594 0 -8.042969 -3.492187 -8.042969 -7.925781 v -22 z m 0 0"
       id="path18" />
  </clipPath>
  <clipPath
     id="s">
    <path
       d="m 32 36 h 40 v 4 h -40 z m 0 0"
       id="path19" />
  </clipPath>
  <clipPath
     id="t">
    <path
       d="m 28 8 c -4.433594 0 -8 3.566406 -8 8 v 96 c 0 4.433594 3.566406 8 8 8 h 72 c 4.433594 0 8.046875 -3.589844 8.042969 -8.019531 v -74.0625 l -22 0.007812 c -4.433594 0 -8.042969 -3.492187 -8.042969 -7.925781 v -22 z m 0 0"
       id="path20" />
  </clipPath>
  <clipPath
     id="u">
    <path
       d="m 32 28 h 40 v 4 h -40 z m 0 0"
       id="path21" />
  </clipPath>
  <clipPath
     id="v">
    <path
       d="m 28 8 c -4.433594 0 -8 3.566406 -8 8 v 96 c 0 4.433594 3.566406 8 8 8 h 72 c 4.433594 0 8.046875 -3.589844 8.042969 -8.019531 v -74.0625 l -22 0.007812 c -4.433594 0 -8.042969 -3.492187 -8.042969 -7.925781 v -22 z m 0 0"
       id="path22" />
  </clipPath>
  <clipPath
     id="w">
    <path
       d="m 32 53 h 42 v 51 h -42 z m 0 0"
       id="path23" />
  </clipPath>
  <clipPath
     id="x">
    <path
       d="m 28 8 c -4.433594 0 -8 3.566406 -8 8 v 96 c 0 4.433594 3.566406 8 8 8 h 72 c 4.433594 0 8.046875 -3.589844 8.042969 -8.019531 v -74.0625 l -22 0.007812 c -4.433594 0 -8.042969 -3.492187 -8.042969 -7.925781 v -22 z m 0 0"
       id="path24" />
  </clipPath>
  <radialGradient
     id="y"
     cx="413.639404"
     cy="226.77327"
     gradientTransform="matrix(0.231318 0.400655 0.244759 -0.141312 -89.187302 -67.681122)"
     gradientUnits="userSpaceOnUse"
     r="192">
    <stop
       offset="0"
       stop-color="#50db81"
       id="stop24" />
    <stop
       offset="1"
       stop-color="#8ff0a4"
       stop-opacity="0.003922"
       id="stop25" />
  </radialGradient>
  <clipPath
     id="z">
    <path
       d="m 20 8 h 44 v 112 h -44 z m 0 0"
       id="path25" />
  </clipPath>
  <clipPath
     id="A">
    <path
       d="m 28 8 c -4.433594 0 -8 3.566406 -8 8 v 96 c 0 4.433594 3.566406 8 8 8 h 72 c 4.433594 0 8.046875 -3.589844 8.042969 -8.019531 v -74.0625 l -22 0.007812 c -4.433594 0 -8.042969 -3.492187 -8.042969 -7.925781 v -22 z m 0 0"
       id="path26" />
  </clipPath>
  <clipPath
     id="B">
    <path
       d="m 64 8 h 45 v 112 h -45 z m 0 0"
       id="path27" />
  </clipPath>
  <clipPath
     id="C">
    <path
       d="m 28 8 c -4.433594 0 -8 3.566406 -8 8 v 96 c 0 4.433594 3.566406 8 8 8 h 72 c 4.433594 0 8.046875 -3.589844 8.042969 -8.019531 v -74.0625 l -22 0.007812 c -4.433594 0 -8.042969 -3.492187 -8.042969 -7.925781 v -22 z m 0 0"
       id="path28" />
  </clipPath>
  <g
     clip-path="url(#a)"
     id="g30"
     style="fill:#fbf1c7">
    <g
       clip-path="url(#b)"
       id="g29"
       style="fill:#fbf1c7">
      <path
         d="m 28 8 h 50 l 30.042969 29.917969 v 74.058593 c 0 4.433594 -3.609375 8.023438 -8.042969 8.023438 h -72 c -4.433594 0 -8 -3.566406 -8 -8 v -96 c 0 -4.433594 3.566406 -8 8 -8 z m 0 0"
         fill="#f6f5f4"
         id="path29"
         style="fill:#fbf1c7" />
    </g>
  </g>
  <g
     clip-path="url(#c)"
     id="g32"
     style="fill:#bdae93">
    <g
       clip-path="url(#d)"
       id="g31"
       style="fill:#bdae93">
      <path
         d="m 82 100 h 12 c 1.105469 0 2 0.894531 2 2 s -0.894531 2 -2 2 h -12 c -1.105469 0 -2 -0.894531 -2 -2 s 0.894531 -2 2 -2 z m 0 0"
         fill="#deddda"
         id="path30"
         style="fill:#bdae93" />
    </g>
  </g>
  <g
     clip-path="url(#e)"
     id="g34"
     style="fill:#bdae93">
    <g
       clip-path="url(#f)"
       id="g33"
       style="fill:#bdae93">
      <path
         d="m 82 92 h 12 c 1.105469 0 2 0.894531 2 2 s -0.894531 2 -2 2 h -12 c -1.105469 0 -2 -0.894531 -2 -2 s 0.894531 -2 2 -2 z m 0 0"
         fill="#deddda"
         id="path32"
         style="fill:#bdae93" />
    </g>
  </g>
  <g
     clip-path="url(#g)"
     id="g36"
     style="fill:#bdae93">
    <g
       clip-path="url(#h)"
       id="g35"
       style="fill:#bdae93">
      <path
         d="m 82 84 h 12 c 1.105469 0 2 0.894531 2 2 s -0.894531 2 -2 2 h -12 c -1.105469 0 -2 -0.894531 -2 -2 s 0.894531 -2 2 -2 z m 0 0"
         fill="#deddda"
         id="path34"
         style="fill:#bdae93" />
    </g>
  </g>
  <g
     clip-path="url(#i)"
     id="g38"
     style="fill:#bdae93">
    <g
       clip-path="url(#j)"
       id="g37"
       style="fill:#bdae93">
      <path
         d="m 82 76 h 12 c 1.105469 0 2 0.894531 2 2 s -0.894531 2 -2 2 h -12 c -1.105469 0 -2 -0.894531 -2 -2 s 0.894531 -2 2 -2 z m 0 0"
         fill="#deddda"
         id="path36"
         style="fill:#bdae93" />
    </g>
  </g>
  <g
     clip-path="url(#k)"
     id="g40"
     style="fill:#bdae93">
    <g
       clip-path="url(#l)"
       id="g39"
       style="fill:#bdae93">
      <path
         d="m 82 68 h 12 c 1.105469 0 2 0.894531 2 2 s -0.894531 2 -2 2 h -12 c -1.105469 0 -2 -0.894531 -2 -2 s 0.894531 -2 2 -2 z m 0 0"
         fill="#deddda"
         id="path38"
         style="fill:#bdae93" />
    </g>
  </g>
  <g
     clip-path="url(#m)"
     id="g42"
     style="fill:#bdae93">
    <g
       clip-path="url(#n)"
       id="g41"
       style="fill:#bdae93">
      <path
         d="m 82 60 h 12 c 1.105469 0 2 0.894531 2 2 s -0.894531 2 -2 2 h -12 c -1.105469 0 -2 -0.894531 -2 -2 s 0.894531 -2 2 -2 z m 0 0"
         fill="#deddda"
         id="path40"
         style="fill:#bdae93" />
    </g>
  </g>
  <g
     clip-path="url(#o)"
     id="g44"
     style="fill:#bdae93">
    <g
       clip-path="url(#p)"
       id="g43"
       style="fill:#bdae93">
      <path
         d="m 82 52 h 12 c 1.105469 0 2 0.894531 2 2 s -0.894531 2 -2 2 h -12 c -1.105469 0 -2 -0.894531 -2 -2 s 0.894531 -2 2 -2 z m 0 0"
         fill="#deddda"
         id="path42"
         style="fill:#bdae93" />
    </g>
  </g>
  <g
     clip-path="url(#q)"
     id="g46"
     style="fill:#bdae93">
    <g
       clip-path="url(#r)"
       id="g45"
       style="fill:#bdae93">
      <path
         d="m 34 44 h 60 c 1.105469 0 2 0.894531 2 2 s -0.894531 2 -2 2 h -60 c -1.105469 0 -2 -0.894531 -2 -2 s 0.894531 -2 2 -2 z m 0 0"
         fill="#deddda"
         id="path44"
         style="fill:#bdae93" />
    </g>
  </g>
  <g
     clip-path="url(#s)"
     id="g48"
     style="fill:#bdae93">
    <g
       clip-path="url(#t)"
       id="g47"
       style="fill:#bdae93">
      <path
         d="m 34 36 h 36 c 1.105469 0 2 0.59375 2 1.324219 v 1.351562 c 0 0.730469 -0.894531 1.324219 -2 1.324219 h -36 c -1.105469 0 -2 -0.59375 -2 -1.324219 v -1.351562 c 0 -0.730469 0.894531 -1.324219 2 -1.324219 z m 0 0"
         fill="#deddda"
         id="path46"
         style="fill:#bdae93" />
    </g>
  </g>
  <g
     clip-path="url(#u)"
     id="g50"
     style="fill:#bdae93">
    <g
       clip-path="url(#v)"
       id="g49"
       style="fill:#bdae93">
      <path
         d="m 34 28 h 36 c 1.105469 0 2 0.59375 2 1.324219 v 1.351562 c 0 0.730469 -0.894531 1.324219 -2 1.324219 h -36 c -1.105469 0 -2 -0.59375 -2 -1.324219 v -1.351562 c 0 -0.730469 0.894531 -1.324219 2 -1.324219 z m 0 0"
         fill="#deddda"
         id="path48"
         style="fill:#bdae93" />
    </g>
  </g>
  <g
     clip-path="url(#w)"
     id="g52"
     style="fill:#bdae93">
    <g
       clip-path="url(#x)"
       id="g51"
       style="fill:#bdae93">
      <path
         d="m 36 104 h 34 c 2.210938 0 4 -1.789062 4 -4 v -42.035156 c 0 -2.207032 -1.789062 -4 -4 -4 h -34 c -2.210938 0 -4 1.792968 -4 4 v 42.035156 c 0 2.210938 1.789062 4 4 4 z m 0 0"
         fill="url(#y)"
         id="path50"
         style="fill:#bdae93" />
      <path
         d="m 36 104 h 34 c 2.210938 0 4 -1.789062 4 -4 v -42.035156 c 0 -2.207032 -1.789062 -4 -4 -4 h -34 c -2.210938 0 -4 1.792968 -4 4 v 42.035156 c 0 2.210938 1.789062 4 4 4 z m 0 0"
         fill="#deddda"
         id="path51"
         style="fill:#bdae93" />
    </g>
  </g>
  <path
     d="m 78 8 v 22 c 0 4.433594 3.609375 7.921875 8.042969 7.921875 l 22 -0.003906 z m 0 0"
     fill="#deddda"
     id="path56"
     style="fill:#bdae93" />
</svg>
