<?xml version="1.0" encoding="UTF-8" standalone="no"?>
<svg
   height="128px"
   viewBox="0 0 128 128"
   width="128px"
   version="1.1"
   id="svg42"
   sodipodi:docname="x-office-presentation-template.svg"
   inkscape:version="1.4.3 (0d15f75, 2025-12-25)"
   xmlns:inkscape="http://www.inkscape.org/namespaces/inkscape"
   xmlns:sodipodi="http://sodipodi.sourceforge.net/DTD/sodipodi-0.dtd"
   xmlns="http://www.w3.org/2000/svg"
   xmlns:svg="http://www.w3.org/2000/svg">
  <defs
     id="defs42">
    <linearGradient
       id="d-0"
       gradientUnits="userSpaceOnUse"
       x1="82.25"
       x2="82.25"
       y1="12"
       y2="26"
       gradientTransform="translate(-3,135)">
      <stop
         offset="0"
         stop-color="#deddda"
         id="stop11"
         style="stop-color:#bdae93;stop-opacity:1" />
      <stop
         offset="1"
         stop-color="#9a9996"
         id="stop12"
         style="stop-color:#504945;stop-opacity:1" />
    </linearGradient>
    <linearGradient
       id="b-9"
       gradientUnits="userSpaceOnUse"
       x1="18.209841"
       x2="109.79022"
       y1="102"
       y2="102"
       gradientTransform="translate(-3,135)">
      <stop
         offset="0"
         stop-color="#c7c6c3"
         id="stop3-4"
         style="stop-color:#504945;stop-opacity:1" />
      <stop
         offset="0.024221"
         stop-color="#e8e7e3"
         id="stop4-8"
         style="stop-color:#282828;stop-opacity:1" />
      <stop
         offset="0.0686115"
         stop-color="#cbcac7"
         id="stop5-8"
         style="stop-color:#1d2021;stop-opacity:1" />
      <stop
         offset="0.916655"
         stop-color="#cbcac7"
         id="stop6-2"
         style="stop-color:#1d2021;stop-opacity:1" />
      <stop
         offset="0.960246"
         stop-color="#eae8e4"
         id="stop7-4"
         style="stop-color:#3c3836;stop-opacity:1" />
      <stop
         offset="1"
         stop-color="#acaba8"
         id="stop8-5"
         style="stop-color:#504945;stop-opacity:1" />
    </linearGradient>
    <linearGradient
       id="a-5"
       gradientUnits="userSpaceOnUse"
       x1="64"
       x2="64"
       y1="276"
       y2="284"
       gradientTransform="translate(-3,-37)">
      <stop
         offset="0"
         stop-color="#414140"
         id="stop1-1" />
      <stop
         offset="1"
         stop-color="#949390"
         id="stop2-7"
         style="stop-color:#1d2021;stop-opacity:1" />
    </linearGradient>
    <linearGradient
       id="d-2"
       gradientUnits="userSpaceOnUse"
       x1="82.25"
       x2="82.25"
       y1="12"
       y2="26"
       gradientTransform="translate(-1.2430487,1.7987853)">
      <stop
         offset="0"
         stop-color="#deddda"
         id="stop11-2"
         style="stop-color:#bdae93;stop-opacity:1" />
      <stop
         offset="1"
         stop-color="#9a9996"
         id="stop12-1"
         style="stop-color:#504945;stop-opacity:1" />
    </linearGradient>
    <linearGradient
       id="b-6"
       gradientUnits="userSpaceOnUse"
       x1="18.209841"
       x2="109.79022"
       y1="102"
       y2="102"
       gradientTransform="translate(-1.2430487,1.7987853)">
      <stop
         offset="0"
         stop-color="#c7c6c3"
         id="stop3-8"
         style="stop-color:#504945;stop-opacity:1" />
      <stop
         offset="0.024221"
         stop-color="#e8e7e3"
         id="stop4-5"
         style="stop-color:#282828;stop-opacity:1" />
      <stop
         offset="0.0686115"
         stop-color="#cbcac7"
         id="stop5-7"
         style="stop-color:#1d2021;stop-opacity:1" />
      <stop
         offset="0.916655"
         stop-color="#cbcac7"
         id="stop6-6"
         style="stop-color:#1d2021;stop-opacity:1" />
      <stop
         offset="0.960246"
         stop-color="#eae8e4"
         id="stop7-1"
         style="stop-color:#3c3836;stop-opacity:1" />
      <stop
         offset="1"
         stop-color="#acaba8"
         id="stop8-8"
         style="stop-color:#504945;stop-opacity:1" />
    </linearGradient>
    <linearGradient
       id="a-9"
       gradientUnits="userSpaceOnUse"
       x1="64"
       x2="64"
       y1="276"
       y2="284"
       gradientTransform="translate(-1.2430487,-170.20122)">
      <stop
         offset="0"
         stop-color="#414140"
         id="stop1-2" />
      <stop
         offset="1"
         stop-color="#949390"
         id="stop2-79"
         style="stop-color:#1d2021;stop-opacity:1" />
    </linearGradient>
  </defs>
  <sodipodi:namedview
     id="namedview42"
     pagecolor="#ffffff"
     bordercolor="#000000"
     borderopacity="0.25"
     inkscape:showpageshadow="2"
     inkscape:pageopacity="0.0"
     inkscape:pagecheckerboard="0"
     inkscape:deskcolor="#d1d1d1"
     inkscape:zoom="26.71875"
     inkscape:cx="54.549708"
     inkscape:cy="68.959064"
     inkscape:window-width="1920"
     inkscape:window-height="1057"
     inkscape:window-x="-8"
     inkscape:window-y="-8"
     inkscape:window-maximized="1"
     inkscape:current-layer="svg42" />
  <linearGradient
     id="a"
     gradientUnits="userSpaceOnUse"
     x1="64"
     x2="64"
     y1="276"
     y2="284">
    <stop
       offset="0"
       stop-color="#414140"
       id="stop1" />
    <stop
       offset="1"
       stop-color="#949390"
       id="stop2" />
  </linearGradient>
  <linearGradient
     id="b"
     gradientUnits="userSpaceOnUse"
     x1="18.20984075"
     x2="109.79022225"
     y1="102"
     y2="102">
    <stop
       offset="0"
       stop-color="#c7c6c3"
       id="stop3" />
    <stop
       offset="0.024221"
       stop-color="#e8e7e3"
       id="stop4" />
    <stop
       offset="0.0686115"
       stop-color="#cbcac7"
       id="stop5" />
    <stop
       offset="0.916655"
       stop-color="#cbcac7"
       id="stop6" />
    <stop
       offset="0.960246"
       stop-color="#eae8e4"
       id="stop7" />
    <stop
       offset="1"
       stop-color="#acaba8"
       id="stop8" />
  </linearGradient>
  <clipPath
     id="c">
    <path
       d="m 18 20 h 92 v 80 h -92 z m 0 0"
       id="path8" />
  </clipPath>
  <clipPath
     id="d">
    <path
       d="m 24 20 h 80 c 3.3125 0 6 2.6875 6 6 v 68 c 0 3.3125 -2.6875 6 -6 6 h -80 c -3.3125 0 -6 -2.6875 -6 -6 v -68 c 0 -3.3125 2.6875 -6 6 -6 z m 0 0"
       id="path9" />
  </clipPath>
  <linearGradient
     id="e"
     gradientTransform="matrix(0.2875 0 0 0.27027 -331.600006 -696.756775)"
     gradientUnits="userSpaceOnUse"
     x1="1376"
     x2="1376"
     y1="2692"
     y2="2932">
    <stop
       offset="0"
       stop-color="#f6f5f4"
       id="stop9" />
    <stop
       offset="1"
       stop-color="#ffffff"
       id="stop10" />
  </linearGradient>
  <clipPath
     id="f">
    <path
       d="m 82 40 h 14 v 44 h -14 z m 0 0"
       id="path10" />
  </clipPath>
  <clipPath
     id="g">
    <path
       d="m 24 20 h 80 c 3.3125 0 6 2.6875 6 6 v 68 c 0 3.3125 -2.6875 6 -6 6 h -80 c -3.3125 0 -6 -2.6875 -6 -6 v -68 c 0 -3.3125 2.6875 -6 6 -6 z m 0 0"
       id="path11" />
  </clipPath>
  <clipPath
     id="h">
    <path
       d="m 34 48 h 36 v 36 h -36 z m 0 0"
       id="path12" />
  </clipPath>
  <clipPath
     id="i">
    <path
       d="m 24 20 h 80 c 3.3125 0 6 2.6875 6 6 v 68 c 0 3.3125 -2.6875 6 -6 6 h -80 c -3.3125 0 -6 -2.6875 -6 -6 v -68 c 0 -3.3125 2.6875 -6 6 -6 z m 0 0"
       id="path13" />
  </clipPath>
  <clipPath
     id="j">
    <path
       d="m 33 48 h 37 v 37 h -37 z m 0 0"
       id="path14" />
  </clipPath>
  <clipPath
     id="k">
    <path
       d="m 24 20 h 80 c 3.3125 0 6 2.6875 6 6 v 68 c 0 3.3125 -2.6875 6 -6 6 h -80 c -3.3125 0 -6 -2.6875 -6 -6 v -68 c 0 -3.3125 2.6875 -6 6 -6 z m 0 0"
       id="path15" />
  </clipPath>
  <clipPath
     id="l">
    <path
       d="m 56 44 h 18 v 18 h -18 z m 0 0"
       id="path16" />
  </clipPath>
  <clipPath
     id="m">
    <path
       d="m 24 20 h 80 c 3.3125 0 6 2.6875 6 6 v 68 c 0 3.3125 -2.6875 6 -6 6 h -80 c -3.3125 0 -6 -2.6875 -6 -6 v -68 c 0 -3.3125 2.6875 -6 6 -6 z m 0 0"
       id="path17" />
  </clipPath>
  <clipPath
     id="n">
    <path
       d="m 55 44 h 19 v 19 h -19 z m 0 0"
       id="path18" />
  </clipPath>
  <clipPath
     id="o">
    <path
       d="m 24 20 h 80 c 3.3125 0 6 2.6875 6 6 v 68 c 0 3.3125 -2.6875 6 -6 6 h -80 c -3.3125 0 -6 -2.6875 -6 -6 v -68 c 0 -3.3125 2.6875 -6 6 -6 z m 0 0"
       id="path19" />
  </clipPath>
  <clipPath
     id="p">
    <path
       d="m 18 24 h 46 v 76 h -46 z m 0 0"
       id="path20" />
  </clipPath>
  <clipPath
     id="q">
    <path
       d="m 24 20 h 80 c 3.3125 0 6 2.6875 6 6 v 68 c 0 3.3125 -2.6875 6 -6 6 h -80 c -3.3125 0 -6 -2.6875 -6 -6 v -68 c 0 -3.3125 2.6875 -6 6 -6 z m 0 0"
       id="path21" />
  </clipPath>
  <clipPath
     id="r">
    <path
       d="m 62 24 h 48 v 76 h -48 z m 0 0"
       id="path22" />
  </clipPath>
  <clipPath
     id="s">
    <path
       d="m 24 20 h 80 c 3.3125 0 6 2.6875 6 6 v 68 c 0 3.3125 -2.6875 6 -6 6 h -80 c -3.3125 0 -6 -2.6875 -6 -6 v -68 c 0 -3.3125 2.6875 -6 6 -6 z m 0 0"
       id="path23" />
  </clipPath>
  <linearGradient
     id="t"
     gradientUnits="userSpaceOnUse"
     x1="82.25"
     x2="82.25"
     y1="12"
     y2="26">
    <stop
       offset="0"
       stop-color="#deddda"
       id="stop23" />
    <stop
       offset="1"
       stop-color="#9a9996"
       id="stop24" />
  </linearGradient>
  <path
     d="m 81.756951,115.79878 -14,-14 m -24,14 14,-14"
     fill="none"
     stroke="url(#a)"
     stroke-linecap="round"
     stroke-width="6"
     id="path12-5"
     style="stroke:url(#a-9)" />
  <path
     d="m 22.756951,25.798785 h 80.000009 c 3.3125,0 6,2.6875 6,6 v 67.999998 c 0,3.312497 -2.6875,5.999997 -6,5.999997 H 22.756951 c -3.3125,0 -6,-2.6875 -6,-5.999997 V 31.798785 c 0,-3.3125 2.6875,-6 6,-6 z m 0,0"
     fill="url(#b)"
     id="path13-4"
     style="fill:url(#b-6)" />
  <path
     d="m 22.756951,21.798785 h 80.000009 c 3.3125,0 6,2.6875 6,6 v 68 c 0,3.3125 -2.6875,5.999995 -6,5.999995 H 22.756951 c -3.3125,0 -6,-2.687495 -6,-5.999995 v -68 c 0,-3.3125 2.6875,-6 6,-6 z m 0,0"
     fill="url(#c)"
     id="path14-3"
     style="fill:#fbf1c7" />
  <path
     d="m 18.756951,13.798785 h 88.000009 c 4.41797,0 8,3.58203 8,8 0,4.41797 -3.58203,8 -8,8 H 18.756951 c -4.417969,0 -8,-3.58203 -8,-8 0,-4.41797 3.582031,-8 8,-8 z m 0,0"
     fill="url(#d)"
     id="path15-1"
     style="fill:url(#d-2)" />
  <path
     d="m 68.64367,71.794875 c -0.648438,5.80469 -4.082032,10.94532 -9.199219,13.76563 -0.964844,0.53125 -2.625,1.21875 -3.6875,1.52734 -5.609375,1.625 -11.675781,0.41797 -16.234375,-3.23047 -0.863281,-0.6914 -2.132813,-1.96093 -2.824219,-2.82422 -3.648437,-4.55859 -4.855469,-10.625 -3.230469,-16.23437 0.308594,-1.0625 0.996094,-2.72266 1.527344,-3.6875 2.820313,-5.11719 7.960938,-8.55078 13.765625,-9.19922 1.097656,-0.12109 1.996094,0.78516 1.996094,1.89063 v 13.99609 c 0,1.10547 0.894531,2 2,2 h 13.996094 c 1.105468,0 2.011718,0.89844 1.890625,1.99609 z m 0,0"
     fill="#1a5fb4"
     stroke="#204a87"
     stroke-width="0.0018155"
     id="path16-2"
     style="fill:#665c54" />
  <path
     d="m 56.753045,47.912065 c 8.34375,0.92188 14.96875,7.54688 15.890625,15.89063 0.121093,1.09765 -0.785157,1.99609 -1.890625,1.99609 H 56.756951 c -1.105469,0 -2,-0.89453 -2,-2 v -13.99609 c 0,-1.10547 0.898437,-2.01172 1.996094,-1.89063 z m 0,0"
     fill="#26a269"
     stroke="#204a87"
     stroke-width="0.0018155"
     id="path17-3"
     style="fill:#665c54" />
  <path
     d="m 82.756951,81.798785 h 10 c 1.10547,0 2,0.89453 2,2 0,1.10547 -0.89453,2 -2,2 h -10 c -1.105469,0 -2,-0.89453 -2,-2 0,-1.10547 0.894531,-2 2,-2 z m 0,-10 h 10 c 1.10547,0 2,0.89453 2,2 0,1.10547 -0.89453,2 -2,2 h -10 c -1.105469,0 -2,-0.89453 -2,-2 0,-1.10547 0.894531,-2 2,-2 z m 0,-10 h 10 c 1.10547,0 2,0.89453 2,2 0,1.10547 -0.89453,2 -2,2 h -10 c -1.105469,0 -2,-0.89453 -2,-2 0,-1.10547 0.894531,-2 2,-2 z m 0,-10 h 10 c 1.10547,0 2,0.89453 2,2 0,1.10547 -0.89453,2 -2,2 h -10 c -1.105469,0 -2,-0.89453 -2,-2 0,-1.10547 0.894531,-2 2,-2 z m 0,-10 h 10 c 1.10547,0 2,0.89453 2,2 0,1.10547 -0.89453,2 -2,2 h -10 c -1.105469,0 -2,-0.89453 -2,-2 0,-1.10547 0.894531,-2 2,-2 z m 0,0"
     fill="#d5d3cf"
     id="path18-3"
     style="fill:#bdae93" />
  <path
     d="m 68.64367,69.794875 c -0.648438,5.80469 -4.082032,10.94532 -9.199219,13.76563 -0.964844,0.53125 -2.625,1.21875 -3.6875,1.52734 -5.609375,1.625 -11.675781,0.41797 -16.234375,-3.23047 -0.863281,-0.6914 -2.132813,-1.96093 -2.824219,-2.82422 -3.648437,-4.55859 -4.855469,-10.625 -3.230469,-16.23437 0.308594,-1.0625 0.996094,-2.72266 1.527344,-3.6875 2.820313,-5.11719 7.960938,-8.55078 13.765625,-9.19922 1.097656,-0.12109 1.996094,0.78516 1.996094,1.89063 v 13.99609 c 0,1.10547 0.894531,2 2,2 h 13.996094 c 1.105468,0 2.011718,0.89844 1.890625,1.99609 z m 0,0"
     fill="#4a86cf"
     stroke="#204a87"
     stroke-width="0.0018155"
     id="path19-4"
     style="fill:#bdae93" />
  <path
     d="m 56.753045,45.912065 c 8.34375,0.92188 14.96875,7.54688 15.890625,15.89063 0.121093,1.09765 -0.785157,1.99609 -1.890625,1.99609 H 56.756951 c -1.105469,0 -2,-0.89453 -2,-2 v -13.99609 c 0,-1.10547 0.898437,-2.01172 1.996094,-1.89063 z m 0,0"
     fill="#50db81"
     stroke="#204a87"
     stroke-width="0.0018155"
     id="path20-1"
     style="fill:#bdae93" />
  <path
     d="M 16.756951,19.798785 H 108.75696"
     fill="none"
     stroke="#deddda"
     stroke-linecap="round"
     stroke-width="4"
     id="path21-1"
     style="stroke:#eae9c5" />
</svg>
