<?xml version="1.0" encoding="UTF-8" standalone="no"?>
<svg
   height="128px"
   viewBox="0 0 128 128"
   width="128px"
   version="1.1"
   id="svg11"
   sodipodi:docname="x-office-drawing.svg"
   inkscape:version="1.4.3 (0d15f75, 2025-12-25)"
   xmlns:inkscape="http://www.inkscape.org/namespaces/inkscape"
   xmlns:sodipodi="http://sodipodi.sourceforge.net/DTD/sodipodi-0.dtd"
   xmlns="http://www.w3.org/2000/svg"
   xmlns:svg="http://www.w3.org/2000/svg">
  <defs
     id="defs11" />
  <sodipodi:namedview
     id="namedview11"
     pagecolor="#ffffff"
     bordercolor="#000000"
     borderopacity="0.25"
     inkscape:showpageshadow="2"
     inkscape:pageopacity="0.0"
     inkscape:pagecheckerboard="0"
     inkscape:deskcolor="#d1d1d1"
     inkscape:zoom="6.6796875"
     inkscape:cx="64"
     inkscape:cy="64"
     inkscape:window-width="1920"
     inkscape:window-height="1057"
     inkscape:window-x="-8"
     inkscape:window-y="-8"
     inkscape:window-maximized="1"
     inkscape:current-layer="svg11" />
  <linearGradient
     id="a"
     gradientUnits="userSpaceOnUse"
     x1="44.20664292648"
     x2="40.78685574741"
     y1="55.29408859426"
     y2="58.71387539619"
     gradientTransform="translate(-2.994152,-12.725146)">
    <stop
       offset="0"
       stop-color="#e9b96e"
       id="stop1"
       style="stop-color:#b57614;stop-opacity:1" />
    <stop
       offset="1"
       stop-color="#dc9321"
       id="stop2" />
  </linearGradient>
  <linearGradient
     id="b"
     gradientUnits="userSpaceOnUse"
     x1="68.9334157623"
     x2="72.7353432269"
     y1="88.537116"
     y2="84.73519456973"
     gradientTransform="translate(-2.994152,-12.725146)">
    <stop
       offset="0"
       stop-color="#bcbcb4"
       id="stop3"
       style="stop-color:#665c54;stop-opacity:1" />
    <stop
       offset="1"
       stop-color="#eeeeec"
       id="stop4"
       style="stop-color:#bdae93;stop-opacity:1" />
  </linearGradient>
  <radialGradient
     id="c"
     cx="75.85711561276"
     cy="81.45731688733"
     gradientUnits="userSpaceOnUse"
     r="24.83847316942"
     gradientTransform="translate(-2.994152,-12.725146)">
    <stop
       offset="0"
       stop-color="#505050"
       id="stop5" />
    <stop
       offset="1"
       id="stop6" />
  </radialGradient>
  <path
     d="m 28 8 h 50 l 30.042969 29.917969 v 74.058593 c 0 4.433594 -3.609375 8.023438 -8.042969 8.023438 h -72 c -4.433594 0 -8 -3.566406 -8 -8 v -96 c 0 -4.433594 3.566406 -8 8 -8 z m 0 0"
     fill="#f6f5f4"
     id="path6"
     style="fill:#fbf1c7" />
  <path
     d="m 78 8 v 22 c 0 4.433594 3.609375 7.921875 8.042969 7.921875 l 22 -0.003906 z m 0 0"
     fill="#deddda"
     id="path7"
     style="fill:#bdae93" />
  <path
     d="m 33.005848,41.673292 40.730469,40.734374 c 1.757812,1.828126 4.671875,1.855469 6.464843,0.0625 1.792969,-1.792968 1.765626,-4.707031 -0.0625,-6.464843 L 45.623036,41.493604 c -3.917969,-3.359375 -9.417969,-3.019531 -12.617188,0.179688 z m 0,0"
     fill="url(#a)"
     id="path8"
     style="fill:url(#a)" />
  <path
     d="m 55.751942,51.989698 c -2.453125,0 -4.664063,1.492187 -5.589844,3.765625 -0.921875,2.277343 -0.375,4.886719 1.386719,6.597656 L 72.66991,83.474073 c 1.519532,1.546875 3.753907,2.15625 5.847657,1.601562 2.097656,-0.554687 3.734375,-2.191406 4.289062,-4.289062 0.554688,-2.09375 -0.05469,-4.328125 -1.601562,-5.847657 L 60.083973,53.817823 c -1.136719,-1.167969 -2.699219,-1.828125 -4.332031,-1.828125 z m 0,0"
     fill="url(#b)"
     id="path9"
     style="fill:url(#b)" />
  <path
     d="m 73.91991,61.102979 c -8.332031,0 -15.085937,6.753906 -15.085937,15.085937 0,8.332032 6.753906,15.085938 15.085937,15.085938 H 89.005848 V 76.188916 c 0,-8.332031 -6.753906,-15.085937 -15.085938,-15.085937 z m 0,0"
     fill="url(#c)"
     id="path10"
     style="fill:url(#c)" />
  <path
     d="m 74.806629,68.77876 c 0,-1.324218 -1.070312,-2.394531 -2.394531,-2.394531 -1.324219,0 -2.398438,1.070313 -2.398438,2.394531 0,1.324219 1.074219,2.398438 2.398438,2.398438 1.324219,0 2.394531,-1.074219 2.394531,-2.398438 z m 0,0"
     fill="#7a8599"
     id="path11"
     style="fill:#dfab01" />
</svg>
