<?xml version="1.0" encoding="UTF-8" standalone="no"?>
<svg
   height="128px"
   viewBox="0 0 128 128"
   width="128px"
   version="1.1"
   id="svg31"
   sodipodi:docname="x-office-spreadsheet.svg"
   inkscape:version="1.4.3 (0d15f75, 2025-12-25)"
   xmlns:inkscape="http://www.inkscape.org/namespaces/inkscape"
   xmlns:sodipodi="http://sodipodi.sourceforge.net/DTD/sodipodi-0.dtd"
   xmlns="http://www.w3.org/2000/svg"
   xmlns:svg="http://www.w3.org/2000/svg">
  <defs
     id="defs31" />
  <sodipodi:namedview
     id="namedview31"
     pagecolor="#ffffff"
     bordercolor="#000000"
     borderopacity="0.25"
     inkscape:showpageshadow="2"
     inkscape:pageopacity="0.0"
     inkscape:pagecheckerboard="0"
     inkscape:deskcolor="#d1d1d1"
     inkscape:zoom="6.6796875"
     inkscape:cx="64"
     inkscape:cy="64"
     inkscape:window-width="1920"
     inkscape:window-height="1057"
     inkscape:window-x="-8"
     inkscape:window-y="-8"
     inkscape:window-maximized="1"
     inkscape:current-layer="svg31" />
  <filter
     id="a"
     height="1"
     width="1"
     x="0"
     y="0">
    <feColorMatrix
       in="SourceGraphic"
       type="matrix"
       values="0 0 0 0 1 0 0 0 0 1 0 0 0 0 1 0 0 0 1 0"
       id="feColorMatrix1" />
  </filter>
  <mask
     id="b">
    <g
       filter="url(#a)"
       id="g1">
      <rect
         fill-opacity="0.3"
         height="128"
         width="128"
         id="rect1" />
    </g>
  </mask>
  <clipPath
     id="c">
    <rect
       height="152"
       width="192"
       id="rect2" />
  </clipPath>
  <path
     d="m 28 8 h 50 l 30.042969 29.917969 v 74.058593 c 0 4.433594 -3.609375 8.023438 -8.042969 8.023438 h -72 c -4.433594 0 -8 -3.566406 -8 -8 v -96 c 0 -4.433594 3.566406 -8 8 -8 z m 0 0"
     fill="#f6f5f4"
     id="path2"
     style="fill:#fbf1c7" />
  <path
     d="m 78 8 v 22 c 0 4.433594 3.609375 7.921875 8.042969 7.921875 l 22 -0.003906 z m 0 0"
     fill="#deddda"
     id="path3"
     style="fill:#bdae93" />
  <g
     fill="#d5d3cf"
     id="g24"
     style="fill:#bdae93">
    <g
       clip-path="url(#c)"
       mask="url(#b)"
       transform="matrix(1 0 0 1 -8 -16)"
       id="g22"
       style="fill:#bdae93">
      <path
         d="m 42 36 h 2 v 30 h -2 z m 0 0"
         id="path4"
         style="fill:#bdae93" />
      <path
         d="m 52 36 h 2 v 30 h -2 z m 0 0"
         id="path5"
         style="fill:#bdae93" />
      <path
         d="m 68 36 h 2 v 30 h -2 z m 0 0"
         id="path6"
         style="fill:#bdae93" />
      <path
         d="m 84 58 h 2 v 8 h -2 z m 0 0"
         id="path7"
         style="fill:#bdae93" />
      <path
         d="m 100 58 h 2 v 8 h -2 z m 0 0"
         id="path8"
         style="fill:#bdae93" />
      <path
         d="m 42 64 h 60 v 2 h -60 z m 0 0"
         id="path9"
         style="fill:#bdae93" />
      <path
         d="m 42 58 h 60 v 2 h -60 z m 0 0"
         id="path10"
         style="fill:#bdae93" />
      <path
         d="m 42 52 h 28 v 2 h -28 z m 0 0"
         id="path11"
         style="fill:#bdae93" />
      <path
         d="m 42 46 h 28 v 2 h -28 z m 0 0"
         id="path12"
         style="fill:#bdae93" />
      <path
         d="m 42 40 h 28 v 2 h -28 z m 0 0"
         id="path13"
         style="fill:#bdae93" />
      <path
         d="m 42 34 h 28 v 2 h -28 z m 0 0"
         id="path14"
         style="fill:#bdae93" />
      <path
         d="m 42 114 h 60 v 2 h -60 z m 0 0"
         id="path15"
         style="fill:#bdae93" />
      <path
         d="m 42 120 h 60 v 2 h -60 z m 0 0"
         id="path16"
         style="fill:#bdae93" />
      <path
         d="m 42 126 h 60 v 2 h -60 z m 0 0"
         id="path17"
         style="fill:#bdae93" />
      <path
         d="m 42 114 h 2 v 14 h -2 z m 0 0"
         id="path18"
         style="fill:#bdae93" />
      <path
         d="m 52 114 h 2 v 14 h -2 z m 0 0"
         id="path19"
         style="fill:#bdae93" />
      <path
         d="m 68 114 h 2 v 14 h -2 z m 0 0"
         id="path20"
         style="fill:#bdae93" />
      <path
         d="m 84 114 h 2 v 14 h -2 z m 0 0"
         id="path21"
         style="fill:#bdae93" />
      <path
         d="m 100 114 h 2 v 14 h -2 z m 0 0"
         id="path22"
         style="fill:#bdae93" />
    </g>
    <path
       d="m 34 54 h 2 v 38 h -2 z m 0 0"
       id="path23"
       style="fill:#bdae93" />
    <path
       d="m 94 90 v 2 h -60 v -2 z m 0 0"
       id="path24"
       style="fill:#bdae93" />
  </g>
  <path
     d="m 38 68 h 6 v 20 h -6 z m 0 0"
     fill="#50db81"
     id="path25"
     style="fill:#fabd2f" />
  <path
     d="m 46 76 h 6 v 12 h -6 z m 0 0"
     fill="#8f5aa0"
     id="path26"
     style="fill:#dfab01" />
  <path
     d="m 54 60 h 6 v 28 h -6 z m 0 0"
     fill="#fb8c14"
     id="path27"
     style="fill:#b57614" />
  <path
     d="m 62 64 h 6 v 24 h -6 z m 0 0"
     fill="#e01b24"
     id="path28"
     style="fill:#dfab01" />
  <path
     d="m 70 74 h 6 v 14 h -6 z m 0 0"
     fill="#8f5aa0"
     id="path29"
     style="fill:#b57614" />
  <path
     d="m 78 80 h 6 v 8 h -6 z m 0 0"
     fill="#4a86cf"
     id="path30"
     style="fill:#fabd2f" />
  <path
     d="m 86 70 h 6 v 18 h -6 z m 0 0"
     fill="#f6d32d"
     id="path31"
     style="fill:#dfab01" />
</svg>
