<?xml version="1.0" encoding="UTF-8" standalone="no"?>
<svg
   height="128px"
   viewBox="0 0 128 128"
   width="128px"
   version="1.1"
   id="svg68"
   sodipodi:docname="x-office-spreadsheet-template.svg"
   inkscape:version="1.4.3 (0d15f75, 2025-12-25)"
   xmlns:inkscape="http://www.inkscape.org/namespaces/inkscape"
   xmlns:sodipodi="http://sodipodi.sourceforge.net/DTD/sodipodi-0.dtd"
   xmlns="http://www.w3.org/2000/svg"
   xmlns:svg="http://www.w3.org/2000/svg">
  <defs
     id="defs68" />
  <sodipodi:namedview
     id="namedview68"
     pagecolor="#ffffff"
     bordercolor="#000000"
     borderopacity="0.25"
     inkscape:showpageshadow="2"
     inkscape:pageopacity="0.0"
     inkscape:pagecheckerboard="0"
     inkscape:deskcolor="#d1d1d1"
     inkscape:zoom="6.6796875"
     inkscape:cx="64"
     inkscape:cy="64"
     inkscape:window-width="1920"
     inkscape:window-height="1057"
     inkscape:window-x="-8"
     inkscape:window-y="-8"
     inkscape:window-maximized="1"
     inkscape:current-layer="svg68" />
  <clipPath
     id="a">
    <path
       d="m 20 8 h 89 v 112 h -89 z m 0 0"
       id="path1" />
  </clipPath>
  <clipPath
     id="b">
    <path
       d="m 28 8 c -4.433594 0 -8 3.566406 -8 8 v 96 c 0 4.433594 3.566406 8 8 8 h 72 c 4.433594 0 8.046875 -3.589844 8.042969 -8.019531 v -74.0625 l -22 0.007812 c -4.433594 0 -8.042969 -3.492187 -8.042969 -7.925781 v -22 z m 0 0"
       id="path2" />
  </clipPath>
  <filter
     id="c"
     height="1"
     width="1"
     x="0"
     y="0">
    <feColorMatrix
       in="SourceGraphic"
       type="matrix"
       values="0 0 0 0 1 0 0 0 0 1 0 0 0 0 1 0 0 0 1 0"
       id="feColorMatrix2" />
  </filter>
  <mask
     id="d">
    <g
       filter="url(#c)"
       id="g2">
      <rect
         fill-opacity="0.3"
         height="128"
         width="128"
         id="rect2" />
    </g>
  </mask>
  <clipPath
     id="e">
    <rect
       height="152"
       width="192"
       id="rect3" />
  </clipPath>
  <clipPath
     id="f">
    <path
       d="m 20 8 h 44 v 112 h -44 z m 0 0"
       id="path3" />
  </clipPath>
  <clipPath
     id="g">
    <path
       d="m 28 8 c -4.433594 0 -8 3.566406 -8 8 v 96 c 0 4.433594 3.566406 8 8 8 h 72 c 4.433594 0 8.046875 -3.589844 8.042969 -8.019531 v -74.0625 l -22 0.007812 c -4.433594 0 -8.042969 -3.492187 -8.042969 -7.925781 v -22 z m 0 0"
       id="path4" />
  </clipPath>
  <clipPath
     id="h">
    <path
       d="m 34 54 h 2 v 38 h -2 z m 0 0"
       id="path5" />
  </clipPath>
  <clipPath
     id="i">
    <path
       d="m 28 8 c -4.433594 0 -8 3.566406 -8 8 v 96 c 0 4.433594 3.566406 8 8 8 h 72 c 4.433594 0 8.046875 -3.589844 8.042969 -8.019531 v -74.0625 l -22 0.007812 c -4.433594 0 -8.042969 -3.492187 -8.042969 -7.925781 v -22 z m 0 0"
       id="path6" />
  </clipPath>
  <clipPath
     id="j">
    <path
       d="m 34 90 h 60 v 2 h -60 z m 0 0"
       id="path7" />
  </clipPath>
  <clipPath
     id="k">
    <path
       d="m 28 8 c -4.433594 0 -8 3.566406 -8 8 v 96 c 0 4.433594 3.566406 8 8 8 h 72 c 4.433594 0 8.046875 -3.589844 8.042969 -8.019531 v -74.0625 l -22 0.007812 c -4.433594 0 -8.042969 -3.492187 -8.042969 -7.925781 v -22 z m 0 0"
       id="path8" />
  </clipPath>
  <clipPath
     id="l">
    <path
       d="m 38 68 h 6 v 20 h -6 z m 0 0"
       id="path9" />
  </clipPath>
  <clipPath
     id="m">
    <path
       d="m 28 8 c -4.433594 0 -8 3.566406 -8 8 v 96 c 0 4.433594 3.566406 8 8 8 h 72 c 4.433594 0 8.046875 -3.589844 8.042969 -8.019531 v -74.0625 l -22 0.007812 c -4.433594 0 -8.042969 -3.492187 -8.042969 -7.925781 v -22 z m 0 0"
       id="path10" />
  </clipPath>
  <clipPath
     id="n">
    <path
       d="m 46 76 h 6 v 12 h -6 z m 0 0"
       id="path11" />
  </clipPath>
  <clipPath
     id="o">
    <path
       d="m 28 8 c -4.433594 0 -8 3.566406 -8 8 v 96 c 0 4.433594 3.566406 8 8 8 h 72 c 4.433594 0 8.046875 -3.589844 8.042969 -8.019531 v -74.0625 l -22 0.007812 c -4.433594 0 -8.042969 -3.492187 -8.042969 -7.925781 v -22 z m 0 0"
       id="path12" />
  </clipPath>
  <clipPath
     id="p">
    <path
       d="m 54 60 h 6 v 28 h -6 z m 0 0"
       id="path13" />
  </clipPath>
  <clipPath
     id="q">
    <path
       d="m 28 8 c -4.433594 0 -8 3.566406 -8 8 v 96 c 0 4.433594 3.566406 8 8 8 h 72 c 4.433594 0 8.046875 -3.589844 8.042969 -8.019531 v -74.0625 l -22 0.007812 c -4.433594 0 -8.042969 -3.492187 -8.042969 -7.925781 v -22 z m 0 0"
       id="path14" />
  </clipPath>
  <clipPath
     id="r">
    <path
       d="m 62 64 h 6 v 24 h -6 z m 0 0"
       id="path15" />
  </clipPath>
  <clipPath
     id="s">
    <path
       d="m 28 8 c -4.433594 0 -8 3.566406 -8 8 v 96 c 0 4.433594 3.566406 8 8 8 h 72 c 4.433594 0 8.046875 -3.589844 8.042969 -8.019531 v -74.0625 l -22 0.007812 c -4.433594 0 -8.042969 -3.492187 -8.042969 -7.925781 v -22 z m 0 0"
       id="path16" />
  </clipPath>
  <clipPath
     id="t">
    <path
       d="m 70 74 h 6 v 14 h -6 z m 0 0"
       id="path17" />
  </clipPath>
  <clipPath
     id="u">
    <path
       d="m 28 8 c -4.433594 0 -8 3.566406 -8 8 v 96 c 0 4.433594 3.566406 8 8 8 h 72 c 4.433594 0 8.046875 -3.589844 8.042969 -8.019531 v -74.0625 l -22 0.007812 c -4.433594 0 -8.042969 -3.492187 -8.042969 -7.925781 v -22 z m 0 0"
       id="path18" />
  </clipPath>
  <clipPath
     id="v">
    <path
       d="m 78 80 h 6 v 8 h -6 z m 0 0"
       id="path19" />
  </clipPath>
  <clipPath
     id="w">
    <path
       d="m 28 8 c -4.433594 0 -8 3.566406 -8 8 v 96 c 0 4.433594 3.566406 8 8 8 h 72 c 4.433594 0 8.046875 -3.589844 8.042969 -8.019531 v -74.0625 l -22 0.007812 c -4.433594 0 -8.042969 -3.492187 -8.042969 -7.925781 v -22 z m 0 0"
       id="path20" />
  </clipPath>
  <clipPath
     id="x">
    <path
       d="m 86 70 h 6 v 18 h -6 z m 0 0"
       id="path21" />
  </clipPath>
  <clipPath
     id="y">
    <path
       d="m 28 8 c -4.433594 0 -8 3.566406 -8 8 v 96 c 0 4.433594 3.566406 8 8 8 h 72 c 4.433594 0 8.046875 -3.589844 8.042969 -8.019531 v -74.0625 l -22 0.007812 c -4.433594 0 -8.042969 -3.492187 -8.042969 -7.925781 v -22 z m 0 0"
       id="path22" />
  </clipPath>
  <clipPath
     id="z">
    <path
       d="m 64 8 h 45 v 112 h -45 z m 0 0"
       id="path23" />
  </clipPath>
  <clipPath
     id="A">
    <path
       d="m 28 8 c -4.433594 0 -8 3.566406 -8 8 v 96 c 0 4.433594 3.566406 8 8 8 h 72 c 4.433594 0 8.046875 -3.589844 8.042969 -8.019531 v -74.0625 l -22 0.007812 c -4.433594 0 -8.042969 -3.492187 -8.042969 -7.925781 v -22 z m 0 0"
       id="path24" />
  </clipPath>
  <g
     clip-path="url(#a)"
     id="g46">
    <g
       clip-path="url(#b)"
       id="g45">
      <path
         d="m 28 8 h 50 l 30.042969 29.917969 v 74.058593 c 0 4.433594 -3.609375 8.023438 -8.042969 8.023438 h -72 c -4.433594 0 -8 -3.566406 -8 -8 v -96 c 0 -4.433594 3.566406 -8 8 -8 z m 0 0"
         fill="#f6f5f4"
         id="path25"
         style="fill:#fbf1c7" />
      <g
         clip-path="url(#e)"
         fill="#d5d3cf"
         mask="url(#d)"
         transform="matrix(1 0 0 1 -8 -16)"
         id="g44"
         style="fill:#bdae93">
        <path
           d="m 42 36 h 2 v 30 h -2 z m 0 0"
           id="path26"
           style="fill:#bdae93" />
        <path
           d="m 52 36 h 2 v 30 h -2 z m 0 0"
           id="path27"
           style="fill:#bdae93" />
        <path
           d="m 68 36 h 2 v 30 h -2 z m 0 0"
           id="path28"
           style="fill:#bdae93" />
        <path
           d="m 84 58 h 2 v 8 h -2 z m 0 0"
           id="path29"
           style="fill:#bdae93" />
        <path
           d="m 100 58 h 2 v 8 h -2 z m 0 0"
           id="path30"
           style="fill:#bdae93" />
        <path
           d="m 42 64 h 60 v 2 h -60 z m 0 0"
           id="path31"
           style="fill:#bdae93" />
        <path
           d="m 42 58 h 60 v 2 h -60 z m 0 0"
           id="path32"
           style="fill:#bdae93" />
        <path
           d="m 42 52 h 28 v 2 h -28 z m 0 0"
           id="path33"
           style="fill:#bdae93" />
        <path
           d="m 42 46 h 28 v 2 h -28 z m 0 0"
           id="path34"
           style="fill:#bdae93" />
        <path
           d="m 42 40 h 28 v 2 h -28 z m 0 0"
           id="path35"
           style="fill:#bdae93" />
        <path
           d="m 42 34 h 28 v 2 h -28 z m 0 0"
           id="path36"
           style="fill:#bdae93" />
        <path
           d="m 42 114 h 60 v 2 h -60 z m 0 0"
           id="path37"
           style="fill:#bdae93" />
        <path
           d="m 42 120 h 60 v 2 h -60 z m 0 0"
           id="path38"
           style="fill:#bdae93" />
        <path
           d="m 42 126 h 60 v 2 h -60 z m 0 0"
           id="path39"
           style="fill:#bdae93" />
        <path
           d="m 42 114 h 2 v 14 h -2 z m 0 0"
           id="path40"
           style="fill:#bdae93" />
        <path
           d="m 52 114 h 2 v 14 h -2 z m 0 0"
           id="path41"
           style="fill:#bdae93" />
        <path
           d="m 68 114 h 2 v 14 h -2 z m 0 0"
           id="path42"
           style="fill:#bdae93" />
        <path
           d="m 84 114 h 2 v 14 h -2 z m 0 0"
           id="path43"
           style="fill:#bdae93" />
        <path
           d="m 100 114 h 2 v 14 h -2 z m 0 0"
           id="path44"
           style="fill:#bdae93" />
      </g>
    </g>
  </g>
  <g
     clip-path="url(#h)"
     id="g50"
     style="fill:#bdae93">
    <g
       clip-path="url(#i)"
       id="g49"
       style="fill:#bdae93">
      <path
         d="m 34 54 h 2 v 38 h -2 z m 0 0"
         fill="#deddda"
         id="path48"
         style="fill:#bdae93" />
    </g>
  </g>
  <g
     clip-path="url(#j)"
     id="g52"
     style="fill:#bdae93">
    <g
       clip-path="url(#k)"
       id="g51"
       style="fill:#bdae93">
      <path
         d="m 94 90 v 2 h -60 v -2 z m 0 0"
         fill="#deddda"
         id="path50"
         style="fill:#bdae93" />
    </g>
  </g>
  <g
     clip-path="url(#l)"
     id="g54"
     style="fill:#bdae93">
    <g
       clip-path="url(#m)"
       id="g53"
       style="fill:#bdae93">
      <path
         d="m 38 68 h 6 v 20 h -6 z m 0 0"
         fill="#deddda"
         id="path52"
         style="fill:#bdae93" />
    </g>
  </g>
  <g
     clip-path="url(#n)"
     id="g56"
     style="fill:#bdae93">
    <g
       clip-path="url(#o)"
       id="g55"
       style="fill:#bdae93">
      <path
         d="m 46 76 h 6 v 12 h -6 z m 0 0"
         fill="#deddda"
         id="path54"
         style="fill:#bdae93" />
    </g>
  </g>
  <g
     clip-path="url(#p)"
     id="g58"
     style="fill:#bdae93">
    <g
       clip-path="url(#q)"
       id="g57"
       style="fill:#bdae93">
      <path
         d="m 54 60 h 6 v 28 h -6 z m 0 0"
         fill="#deddda"
         id="path56"
         style="fill:#bdae93" />
    </g>
  </g>
  <g
     clip-path="url(#r)"
     id="g60"
     style="fill:#bdae93">
    <g
       clip-path="url(#s)"
       id="g59"
       style="fill:#bdae93">
      <path
         d="m 62 64 h 6 v 24 h -6 z m 0 0"
         fill="#deddda"
         id="path58"
         style="fill:#bdae93" />
    </g>
  </g>
  <g
     clip-path="url(#t)"
     id="g62"
     style="fill:#bdae93">
    <g
       clip-path="url(#u)"
       id="g61"
       style="fill:#bdae93">
      <path
         d="m 70 74 h 6 v 14 h -6 z m 0 0"
         fill="#deddda"
         id="path60"
         style="fill:#bdae93" />
    </g>
  </g>
  <g
     clip-path="url(#v)"
     id="g64"
     style="fill:#bdae93">
    <g
       clip-path="url(#w)"
       id="g63"
       style="fill:#bdae93">
      <path
         d="m 78 80 h 6 v 8 h -6 z m 0 0"
         fill="#deddda"
         id="path62"
         style="fill:#bdae93" />
    </g>
  </g>
  <g
     clip-path="url(#x)"
     id="g66"
     style="fill:#bdae93">
    <g
       clip-path="url(#y)"
       id="g65"
       style="fill:#bdae93">
      <path
         d="m 86 70 h 6 v 18 h -6 z m 0 0"
         fill="#deddda"
         id="path64"
         style="fill:#bdae93" />
    </g>
  </g>
  <path
     d="m 78 8 v 22 c 0 4.433594 3.609375 7.921875 8.042969 7.921875 l 22 -0.003906 z m 0 0"
     fill="#deddda"
     id="path68"
     style="fill:#bdae93" />
</svg>
