<?xml version="1.0" encoding="UTF-8" standalone="no"?>
<svg
   height="128px"
   viewBox="0 0 128 128"
   width="128px"
   version="1.1"
   id="svg3"
   sodipodi:docname="image-missing.svg"
   inkscape:version="1.4.3 (0d15f75, 2025-12-25)"
   xmlns:inkscape="http://www.inkscape.org/namespaces/inkscape"
   xmlns:sodipodi="http://sodipodi.sourceforge.net/DTD/sodipodi-0.dtd"
   xmlns="http://www.w3.org/2000/svg"
   xmlns:svg="http://www.w3.org/2000/svg">
  <defs
     id="defs3" />
  <sodipodi:namedview
     id="namedview3"
     pagecolor="#ffffff"
     bordercolor="#000000"
     borderopacity="0.25"
     inkscape:showpageshadow="2"
     inkscape:pageopacity="0.0"
     inkscape:pagecheckerboard="0"
     inkscape:deskcolor="#d1d1d1"
     inkscape:zoom="6.6796875"
     inkscape:cx="64"
     inkscape:cy="64"
     inkscape:window-width="1920"
     inkscape:window-height="1057"
     inkscape:window-x="-8"
     inkscape:window-y="-8"
     inkscape:window-maximized="1"
     inkscape:current-layer="svg3" />
  <path
     d="m 16 27.929688 h 96 c 4.433594 0 8 3.570312 8 8 v 50.070312 l -30 30 h -74 c -4.433594 0 -8 -3.566406 -8 -8 v -72.070312 c 0 -4.429688 3.566406 -8 8 -8 z m 0 0"
     fill="#f6f5f4"
     id="path1"
     style="fill:#fbf1c7" />
  <g
     fill="#deddda"
     id="g3">
    <path
       d="m 63.875 58.003906 c -1.058594 -0.058594 -2.089844 0.570313 -2.894531 1.949219 l -12.574219 23.332031 c -1.074219 1.9375 0.097656 4.714844 2.199219 4.714844 h 26.476562 c 1.972657 0 3.828125 -2.332031 2.453125 -4.714844 l -12.703125 -23.207031 c -0.804687 -1.300781 -1.898437 -2.015625 -2.957031 -2.074219 z m 0.125 7.921875 c 1.097656 -0.035156 2.109375 0.980469 2.074219 2.078125 v 7.921875 c 0.015625 1.0625 -0.945313 2.011719 -2.011719 2.011719 c -1.0625 0 -2.027344 -0.949219 -2.011719 -2.011719 v -7.921875 c -0.015625 -0.941406 0.714844 -1.835937 1.636719 -2.015625 c 0.101562 -0.027343 0.207031 -0.046875 0.3125 -0.0625 z m 0.0625 14.023438 c 1.113281 0 2.011719 0.902343 2.011719 2.015625 c 0 1.109375 -0.898438 2.011718 -2.011719 2.011718 c -1.109375 0 -2.011719 -0.902343 -2.011719 -2.011718 c 0 -1.113282 0.902344 -2.015625 2.011719 -2.015625 z m 0 0"
       id="path3"
       style="fill:#9d0006" />
    <path
       d="m 120 86.125 h -22 c -4.433594 0 -8 3.570312 -8 8 v 21.875 z m 0 0"
       id="path2"
       style="fill:#bdae93" />
  </g>
</svg>
