<?xml version="1.0" encoding="UTF-8" standalone="no"?>
<svg
   height="128px"
   viewBox="0 0 128 128"
   width="128px"
   version="1.1"
   id="svg5"
   sodipodi:docname="image-loading.svg"
   inkscape:version="1.4.3 (0d15f75, 2025-12-25)"
   xmlns:inkscape="http://www.inkscape.org/namespaces/inkscape"
   xmlns:sodipodi="http://sodipodi.sourceforge.net/DTD/sodipodi-0.dtd"
   xmlns="http://www.w3.org/2000/svg"
   xmlns:svg="http://www.w3.org/2000/svg">
  <defs
     id="defs5" />
  <sodipodi:namedview
     id="namedview5"
     pagecolor="#ffffff"
     bordercolor="#000000"
     borderopacity="0.25"
     inkscape:showpageshadow="2"
     inkscape:pageopacity="0.0"
     inkscape:pagecheckerboard="0"
     inkscape:deskcolor="#d1d1d1"
     inkscape:zoom="6.6796875"
     inkscape:cx="64"
     inkscape:cy="64"
     inkscape:window-width="1920"
     inkscape:window-height="1057"
     inkscape:window-x="-8"
     inkscape:window-y="-8"
     inkscape:window-maximized="1"
     inkscape:current-layer="svg5" />
  <path
     d="m 16 27.929688 h 96 c 4.433594 0 8 3.570312 8 8 v 50.070312 l -30 30 h -74 c -4.433594 0 -8 -3.566406 -8 -8 v -72.070312 c 0 -4.429688 3.566406 -8 8 -8 z m 0 0"
     fill="#f6f5f4"
     id="path1"
     style="fill:#fbf1c7" />
  <g
     fill="#deddda"
     id="g5">
    <path
       d="m 120 86.125 h -22 c -4.433594 0 -8 3.570312 -8 8 v 21.875 z m 0 0"
       id="path2"
       style="fill:#bdae93" />
    <path
       d="m 58 72 c 0 2.210938 -1.792969 4 -4 4 c -2.210938 0 -4 -1.789062 -4 -4 s 1.789062 -4 4 -4 c 2.207031 0 4 1.789062 4 4 z m 0 0"
       id="path3"
       style="fill:#fabd2f" />
    <path
       d="m 68 72 c 0 2.210938 -1.792969 4 -4 4 c -2.210938 0 -4 -1.789062 -4 -4 s 1.789062 -4 4 -4 c 2.207031 0 4 1.789062 4 4 z m 0 0"
       id="path4"
       style="fill:#dfab01" />
    <path
       d="m 78 72 c 0 2.210938 -1.792969 4 -4 4 c -2.210938 0 -4 -1.789062 -4 -4 s 1.789062 -4 4 -4 c 2.207031 0 4 1.789062 4 4 z m 0 0"
       id="path5"
       style="fill:#b57614" />
  </g>
</svg>
